<svg width="500" height="500" viewBox="0 0 500 500" fill="none" xmlns="http://www.w3.org/2000/svg">
<g clip-path="url(#clip0_95_302)">
<path opacity="0.1" d="M168.703 141.486L180.486 500H352.917L168.703 141.486Z" fill="#AA84EB"/>
<path opacity="0.1" d="M168.703 141.486L239.14 500H286.144L168.703 141.486Z" fill="#AA84EB"/>
<path d="M268.721 149.384C273.387 170.164 235.295 196.412 183.64 208.01C131.985 219.608 86.3278 212.164 81.6628 191.383L80.2148 184.933L267.273 142.934L268.721 149.384Z" fill="#502B8F"/>
<path d="M182.196 201.552C233.851 189.953 271.942 163.704 267.276 142.924C262.61 122.143 216.953 114.701 165.298 126.3C113.644 137.9 75.5523 164.148 80.2187 184.929C84.885 205.709 130.542 213.151 182.196 201.552Z" fill="#7936EC"/>
<path d="M177.718 199.772C177.707 199.775 177.695 199.777 177.684 199.779L177.588 199.799C176.333 200.043 175.119 199.224 174.874 197.97C174.63 196.715 175.447 195.501 176.703 195.257C177.954 194.995 179.197 195.794 179.459 197.044C179.718 198.284 178.949 199.495 177.718 199.772ZM185.471 198.031C184.255 198.304 183.033 197.562 182.722 196.345C182.406 195.107 183.153 193.848 184.39 193.532C184.401 193.529 184.476 193.511 184.487 193.508C184.498 193.505 184.51 193.503 184.521 193.5C185.752 193.223 186.982 193.986 187.277 195.218C187.575 196.461 186.81 197.71 185.567 198.008L185.027 195.758L185.536 198.016C185.515 198.021 185.493 198.026 185.471 198.031ZM193.216 195.984C192.03 196.25 190.827 195.548 190.487 194.365C190.134 193.137 190.844 191.855 192.073 191.502C193.298 191.154 194.615 191.85 194.967 193.078C195.319 194.306 194.641 195.579 193.413 195.932L193.35 195.95C193.305 195.963 193.261 195.974 193.216 195.984ZM169.841 201.232C169.796 201.242 169.751 201.251 169.706 201.258L169.641 201.269C168.38 201.475 167.19 200.62 166.984 199.359C166.778 198.098 167.637 196.908 168.894 196.702C170.155 196.496 171.377 197.346 171.584 198.607C171.782 199.823 171.025 200.967 169.841 201.232ZM200.88 193.646C199.737 193.903 198.562 193.258 198.182 192.123C197.776 190.912 198.428 189.601 199.64 189.195L199.735 189.164C200.958 188.77 202.255 189.448 202.643 190.665C203.031 191.882 202.36 193.184 201.142 193.573L200.439 191.369L201.112 193.583C201.034 193.607 200.957 193.628 200.88 193.646ZM161.913 202.394C161.847 202.409 161.779 202.421 161.711 202.43L161.612 202.443C160.343 202.594 159.193 201.688 159.042 200.419C158.891 199.15 159.807 197.996 161.066 197.848C162.328 197.697 163.509 198.589 163.668 199.851C163.818 201.043 163.062 202.136 161.913 202.394ZM208.446 191.011C207.331 191.261 206.176 190.653 205.771 189.551C205.33 188.352 205.944 187.022 207.144 186.581L207.206 186.558C208.408 186.118 209.735 186.732 210.176 187.931C210.617 189.13 210.003 190.46 208.803 190.901L208.741 190.924C208.643 190.96 208.545 190.989 208.446 191.011ZM153.947 203.247C153.848 203.269 153.746 203.285 153.643 203.294L153.577 203.3C152.304 203.414 151.18 202.474 151.066 201.202C150.952 199.929 151.897 198.803 153.164 198.691L153.23 198.685C154.503 198.571 155.627 199.51 155.741 200.783C155.846 201.953 155.062 202.997 153.947 203.247ZM215.9 188.071C214.83 188.311 213.708 187.761 213.265 186.715C212.767 185.538 213.316 184.181 214.493 183.682L214.565 183.652C215.749 183.16 217.1 183.717 217.591 184.896C218.083 186.075 217.527 187.43 216.348 187.923L216.298 187.944C216.167 187.999 216.035 188.041 215.9 188.071ZM145.949 203.777C145.82 203.806 145.686 203.824 145.549 203.831L145.471 203.834C144.194 203.886 143.117 202.894 143.064 201.617C143.011 200.34 144.003 199.263 145.281 199.21C146.557 199.151 147.667 200.136 147.726 201.413C147.778 202.552 147.019 203.536 145.949 203.777ZM223.219 184.808C222.182 185.041 221.087 184.532 220.618 183.531C220.076 182.374 220.575 180.996 221.732 180.454C222.884 179.905 224.289 180.384 224.839 181.538C225.388 182.692 224.921 184.061 223.768 184.611L223.695 184.646C223.539 184.717 223.379 184.772 223.219 184.808ZM137.939 203.954C137.773 203.991 137.601 204.01 137.424 204.01H137.372C136.094 204.015 135.054 202.983 135.05 201.705C135.045 200.428 136.074 199.389 137.355 199.382H137.436C138.714 199.386 139.748 200.424 139.744 201.702C139.741 202.803 138.97 203.722 137.939 203.954ZM230.369 181.19C229.376 181.413 228.318 180.957 227.818 180.015C227.22 178.886 227.65 177.485 228.78 176.887C229.904 176.272 231.322 176.676 231.936 177.796C232.55 178.917 232.154 180.315 231.033 180.929L230.946 180.976C230.759 181.075 230.565 181.145 230.369 181.19ZM129.929 203.739C129.722 203.785 129.506 203.804 129.283 203.791L129.249 203.789C127.972 203.731 126.984 202.649 127.042 201.373C127.1 200.096 128.18 199.107 129.459 199.167L129.558 199.172C130.834 199.248 131.807 200.344 131.73 201.619C131.668 202.672 130.91 203.519 129.929 203.739ZM237.3 177.171C236.355 177.383 235.34 176.982 234.812 176.107C234.152 175.013 234.504 173.591 235.599 172.931C236.677 172.247 238.112 172.561 238.798 173.64C239.483 174.719 239.169 176.145 238.09 176.83L237.988 176.893C237.769 177.026 237.537 177.118 237.3 177.171ZM121.944 203.07C121.69 203.127 121.423 203.142 121.151 203.108L121.437 200.812L121.131 203.105C119.868 202.959 118.947 201.82 119.084 200.555C119.222 199.291 120.344 198.373 121.604 198.501L121.723 198.515C122.991 198.673 123.891 199.83 123.733 201.098C123.609 202.093 122.869 202.862 121.944 203.07ZM243.935 172.678C243.054 172.876 242.101 172.545 241.544 171.765C240.801 170.725 241.042 169.28 242.082 168.538C243.103 167.769 244.557 167.972 245.325 168.993C246.093 170.014 245.892 171.462 244.871 172.231L244.771 172.305C244.512 172.489 244.228 172.612 243.935 172.678ZM114.026 201.844C113.715 201.914 113.385 201.92 113.053 201.852L113.52 199.586L113.035 201.848C111.789 201.602 110.96 200.394 111.196 199.146C111.432 197.898 112.617 197.071 113.866 197.296L113.988 197.319C115.24 197.577 116.045 198.801 115.787 200.053C115.597 200.972 114.886 201.651 114.026 201.844ZM106.257 199.893C105.88 199.978 105.477 199.968 105.081 199.848L104.957 199.809C103.745 199.404 103.09 198.094 103.495 196.882C103.9 195.669 105.211 195.016 106.423 195.419C107.646 195.79 108.337 197.083 107.966 198.306C107.715 199.133 107.044 199.717 106.257 199.893ZM250.137 167.577C249.362 167.751 248.519 167.527 247.939 166.91C247.07 165.985 247.097 164.544 248.014 163.666L248.109 163.578C249.054 162.719 250.519 162.791 251.377 163.738C252.235 164.685 252.164 166.148 251.217 167.006L249.663 165.292L251.204 167.018C250.893 167.304 250.523 167.49 250.137 167.577ZM255.561 161.726C254.897 161.875 254.174 161.731 253.602 161.272C252.606 160.471 252.449 159.015 253.249 158.019C254.02 156.999 255.471 156.799 256.49 157.571C257.509 158.342 257.709 159.794 256.938 160.813L256.855 160.92C256.515 161.343 256.055 161.616 255.561 161.726ZM98.8354 196.913C98.3204 197.029 97.7624 196.97 97.2584 196.706L98.3294 194.655L97.2444 196.699C96.1174 196.12 95.6494 194.733 96.2164 193.599C96.7834 192.465 98.1394 191.989 99.2814 192.543L99.4014 192.604C100.534 193.196 100.972 194.593 100.381 195.726C100.052 196.354 99.4774 196.769 98.8354 196.913ZM259.504 154.804C259.074 154.901 258.611 154.876 258.168 154.705C256.975 154.246 256.38 152.908 256.839 151.715C257.259 150.507 258.576 149.875 259.783 150.294C260.99 150.714 261.627 152.037 261.207 153.244L261.159 153.377C260.869 154.127 260.233 154.641 259.504 154.804ZM92.3134 192.34C91.5584 192.509 90.7364 192.296 90.1534 191.704L91.8044 190.083L90.1434 191.694C89.2504 190.796 89.2324 189.335 90.1184 188.43C91.0034 187.526 92.4384 187.488 93.3554 188.362L93.4564 188.462C94.3514 189.374 94.3384 190.839 93.4264 191.734C93.1074 192.047 92.7204 192.249 92.3134 192.34ZM260.181 146.965C258.934 147.245 257.697 146.461 257.417 145.214L257.403 145.15C257.4 145.137 257.397 145.124 257.395 145.111L257.376 145.032C257.096 143.785 257.88 142.547 259.127 142.268C260.374 141.988 261.611 142.772 261.891 144.019L261.888 144.02C261.89 144.025 261.891 144.03 261.892 144.036H261.894C261.897 144.05 261.901 144.065 261.904 144.08C261.909 144.099 261.913 144.118 261.918 144.138L261.932 144.202C262.212 145.447 261.428 146.685 260.181 146.965ZM88.3504 185.539C87.1034 185.819 85.8654 185.035 85.5854 183.788L85.5724 183.729C85.2924 182.482 86.0754 181.242 87.3224 180.962C88.5694 180.682 89.8064 181.463 90.0864 182.71L90.1014 182.774C90.3814 184.022 89.5974 185.259 88.3504 185.539ZM88.9444 177.662C88.5434 177.752 88.1144 177.736 87.7004 177.592C86.4934 177.173 85.8444 175.885 86.2644 174.678L86.2864 174.615C86.7054 173.407 88.0254 172.77 89.2314 173.189C90.4384 173.608 91.0764 174.927 90.6564 176.134C90.3804 176.929 89.7124 177.49 88.9444 177.662ZM256.175 140.038C255.453 140.2 254.67 140.011 254.092 139.461L253.992 139.362C253.097 138.45 253.11 136.985 254.022 136.09C254.932 135.194 256.398 135.207 257.294 136.12L255.643 137.741L257.304 136.13C258.197 137.028 258.215 138.489 257.329 139.393C257.001 139.728 256.598 139.943 256.175 140.038ZM92.8794 170.717C92.2384 170.861 91.5434 170.738 90.9844 170.315C89.9654 169.544 89.7444 168.119 90.5154 167.1L90.5554 167.047C91.3264 166.028 92.7774 165.827 93.7964 166.598C94.8154 167.369 95.0164 168.82 94.2454 169.839C93.8974 170.3 93.4064 170.599 92.8794 170.717ZM249.654 135.47C249.167 135.579 248.641 135.53 248.155 135.294L248.035 135.233C246.902 134.641 246.463 133.243 247.055 132.111C247.646 130.978 249.045 130.54 250.177 131.131L249.106 133.182L250.191 131.138C251.318 131.717 251.786 133.104 251.219 134.238C250.895 134.889 250.31 135.323 249.654 135.47ZM98.2914 164.873C97.5044 165.05 96.6484 164.81 96.0684 164.169C95.2104 163.222 95.2814 161.759 96.2284 160.901L97.7824 162.615L96.2414 160.889C97.1754 160.029 98.6374 160.072 99.5064 160.997C100.375 161.922 100.347 163.363 99.4314 164.241L99.3364 164.329C99.0294 164.608 98.6684 164.788 98.2914 164.873ZM242.247 132.491C241.849 132.58 241.424 132.566 241.009 132.428C239.786 132.057 239.094 130.764 239.466 129.542C239.837 128.319 241.127 127.628 242.351 128L242.475 128.039C243.687 128.443 244.342 129.754 243.937 130.966C243.67 131.762 243.012 132.319 242.247 132.491ZM104.474 159.774C103.613 159.967 102.68 159.659 102.116 158.909C101.347 157.888 101.549 156.44 102.57 155.671L102.67 155.598C103.711 154.854 105.155 155.096 105.898 156.136C106.641 157.176 106.4 158.621 105.36 159.363C105.088 159.568 104.785 159.704 104.474 159.774ZM234.475 130.54C234.185 130.605 233.877 130.614 233.565 130.558L233.443 130.534C232.191 130.276 231.386 129.052 231.644 127.801C231.902 126.55 233.125 125.745 234.377 126.002L233.91 128.268L234.395 126.006C235.641 126.252 236.47 127.46 236.234 128.708C236.058 129.645 235.347 130.344 234.475 130.54ZM111.104 155.272C110.177 155.48 109.178 155.104 108.64 154.257C107.955 153.178 108.269 151.752 109.348 151.067L109.45 151.004C110.543 150.344 111.966 150.696 112.626 151.791C113.286 152.885 112.934 154.307 111.839 154.967C111.607 155.114 111.358 155.215 111.104 155.272ZM226.563 129.313C226.327 129.366 226.08 129.382 225.826 129.356L225.706 129.343C224.438 129.185 223.538 128.028 223.696 126.761C223.854 125.492 225.014 124.594 226.279 124.751L225.993 127.047L226.299 124.753C227.562 124.899 228.483 126.038 228.346 127.303C228.236 128.313 227.5 129.103 226.563 129.313ZM118.048 151.238C117.064 151.459 116.008 151.023 115.501 150.098C114.887 148.977 115.283 147.579 116.404 146.965L116.491 146.918C117.622 146.317 119.021 146.75 119.619 147.88C120.217 149.009 119.787 150.41 118.657 151.008C118.462 151.115 118.257 151.191 118.048 151.238ZM218.582 128.642C218.385 128.686 218.18 128.705 217.969 128.695L217.871 128.69C216.595 128.614 215.622 127.519 215.699 126.243C215.774 124.967 216.873 123.995 218.146 124.071L218.18 124.073C219.457 124.131 220.445 125.213 220.387 126.489C220.337 127.555 219.575 128.42 218.582 128.642ZM125.21 147.608C124.175 147.84 123.069 147.347 122.596 146.354C122.047 145.2 122.514 143.831 123.667 143.281L123.74 143.246C124.9 142.704 126.275 143.203 126.817 144.36C127.359 145.517 126.86 146.895 125.703 147.437C125.542 147.515 125.377 147.571 125.21 147.608ZM210.574 128.427C210.413 128.463 210.246 128.482 210.074 128.483H209.993C208.715 128.479 207.681 127.441 207.685 126.163C207.689 124.886 208.729 123.853 210.005 123.855H210.057C211.335 123.85 212.375 124.882 212.38 126.16C212.383 127.267 211.61 128.194 210.574 128.427ZM132.482 144.36C131.407 144.601 130.281 144.045 129.843 142.993C129.351 141.814 129.907 140.459 131.086 139.966L131.136 139.945C132.313 139.448 133.67 139.996 134.169 141.173C134.667 142.35 134.118 143.708 132.941 144.206L132.869 144.236C132.741 144.29 132.612 144.331 132.482 144.36ZM202.563 128.604C202.429 128.634 202.291 128.653 202.148 128.658C200.872 128.717 199.762 127.731 199.703 126.455C199.644 125.178 200.601 124.099 201.88 124.038L201.958 124.035C203.235 123.982 204.312 124.975 204.365 126.252C204.412 127.386 203.633 128.364 202.563 128.604ZM139.933 141.415C138.818 141.665 137.663 141.057 137.258 139.955C136.817 138.756 137.431 137.426 138.631 136.985L138.662 136.973C139.854 136.514 141.193 137.11 141.652 138.303C142.11 139.496 141.515 140.835 140.322 141.293L140.229 141.328C140.131 141.364 140.032 141.393 139.933 141.415ZM194.568 129.132C194.47 129.154 194.368 129.17 194.265 129.179L194.199 129.185C192.926 129.299 191.802 128.36 191.688 127.087C191.574 125.814 192.519 124.688 193.786 124.576L193.852 124.57C195.125 124.456 196.249 125.395 196.363 126.668C196.468 127.838 195.684 128.881 194.568 129.132ZM147.5 138.775C146.343 139.035 145.158 138.371 144.791 137.22C144.403 136.003 145.074 134.701 146.292 134.312L146.995 136.516L146.322 134.302C147.524 133.897 148.845 134.549 149.251 135.761C149.657 136.972 149.005 138.283 147.793 138.689L147.698 138.72C147.633 138.742 147.566 138.76 147.5 138.775ZM186.6 129.985C186.522 130.002 186.444 130.016 186.364 130.025C185.102 130.176 183.921 129.284 183.762 128.022C183.602 126.761 184.46 125.612 185.719 125.443L185.818 125.43C187.087 125.279 188.237 126.185 188.388 127.454C188.53 128.643 187.743 129.728 186.6 129.985ZM155.226 136.414C154.038 136.681 152.806 135.987 152.466 134.804C152.113 133.576 152.792 132.303 154.02 131.95L154.083 131.932C155.32 131.577 156.593 132.289 156.945 133.517C157.298 134.745 156.588 136.027 155.359 136.38C155.315 136.393 155.27 136.404 155.226 136.414ZM178.671 131.146C178.637 131.154 178.603 131.161 178.569 131.167C178.558 131.169 178.482 131.182 178.471 131.184C177.21 131.39 176.02 130.535 175.814 129.274C175.608 128.013 176.465 126.822 177.724 126.617L178.098 128.9L177.756 126.611C179.014 126.387 180.216 127.225 180.44 128.483C180.657 129.707 179.872 130.877 178.671 131.146ZM162.91 134.38C161.678 134.657 160.449 133.894 160.153 132.662C159.855 131.42 160.62 130.17 161.863 129.872L162.403 132.122L161.894 129.865C161.915 129.859 161.937 129.854 161.959 129.849C163.175 129.576 164.397 130.319 164.708 131.535C165.024 132.773 164.277 134.032 163.04 134.349C163.029 134.352 162.954 134.37 162.943 134.373C162.933 134.375 162.921 134.377 162.91 134.38ZM170.792 132.608C170.769 132.613 170.747 132.618 170.724 132.622C169.475 132.864 168.234 132.06 167.983 130.814C167.732 129.568 168.514 128.363 169.746 128.099C169.757 128.097 169.833 128.081 169.843 128.079C171.098 127.836 172.312 128.656 172.555 129.91C172.794 131.142 172.008 132.335 170.792 132.608Z" fill="#54289E"/>
<g opacity="0.2">
<path d="M91.9163 198.523C98.1783 191.967 162.309 126.998 162.309 126.998C154.408 128.878 146.843 131.096 139.724 133.583C129.746 143.618 83.8663 186.453 81.6953 188.92C83.6733 192.675 87.1803 195.887 91.9163 198.523Z" fill="#7936EC"/>
<path d="M192.312 121.881C188.804 122.24 185.239 122.683 181.616 123.233C168.16 136.492 114.08 188.698 101.477 202.546C103.609 203.224 105.88 203.823 108.266 204.351C115.851 197.231 188.472 126.017 192.312 121.881Z" fill="#7936EC"/>
<path d="M247.141 125.686C245.485 125.127 243.748 124.613 241.928 124.148C236.706 129.377 171.546 192.715 156.781 205.823C160.058 205.463 163.392 205.017 166.766 204.491C170.906 198.883 241.715 131.139 247.141 125.686Z" fill="#7936EC"/>
<path d="M260.866 132.98C259.232 131.585 257.33 130.302 255.177 129.137C247.966 135.632 179.51 199.362 175.441 202.968C177.677 202.534 179.926 202.067 182.189 201.559C186.028 200.697 189.791 199.752 193.468 198.737C196.727 195.202 260.866 132.98 260.866 132.98Z" fill="#7936EC"/>
</g>
<path d="M211.654 143.58C205.939 118.299 182.42 95.8115 159.6 100.936C137.053 105.999 124.332 132.884 130.772 161.74L132.2 168.102C132.2 168.102 147.507 173.958 174.627 167.869C201.747 161.78 213.082 149.942 213.082 149.942L211.654 143.58Z" fill="#AB88E9"/>
<path d="M194.658 161.541C194.885 160.214 194.552 158.778 194.203 157.443C193.444 154.543 191.69 150.66 189.593 148.518C186.676 145.538 180.489 141.239 169.363 143.738C164.402 144.852 156.918 149.054 154.872 153.495C152.827 157.937 152.738 163.1 153.851 167.862C154.064 168.775 154.341 169.707 154.917 170.439C160.668 170.238 167.468 169.476 175.244 167.731C182.96 165.998 189.395 163.8 194.658 161.541Z" fill="#251F15"/>
<g opacity="0.5">
<path d="M162.136 154.746C165.627 155.109 169.354 154.005 172.641 152.908C177.481 151.293 181.855 148.828 185.319 145.296C181.801 143.383 176.645 142.102 169.363 143.737C164.919 144.735 158.461 148.213 155.691 152.119C157.714 153.243 159.629 154.485 162.136 154.746Z" fill="#251F15"/>
<path d="M187.087 161.62C187.869 160.85 188.747 160.716 189.2 159.553C189.534 158.694 189.47 157.677 189.259 156.799C188.426 153.333 184.942 150.499 181.35 151.853C178.106 153.076 174.542 157.505 175.629 161.174C176.213 163.145 177.962 163.005 179.034 164.392C179.519 165.02 179.707 165.803 179.81 166.604C182.093 165.999 184.255 165.359 186.289 164.689C186.282 163.554 186.413 162.285 187.087 161.62Z" fill="#251F15"/>
<path d="M169.441 168.068C170.181 165.859 172.168 165.276 171.781 162.566C171.172 158.302 166.823 156.995 163.183 157.975C160.382 158.729 156.526 161.522 157.969 164.944C158.722 166.73 160.961 166.631 162.068 168.098C162.457 168.613 162.699 169.207 162.885 169.83C164.928 169.597 167.059 169.297 169.292 168.911C169.298 168.645 169.342 168.366 169.441 168.068Z" fill="#251F15"/>
</g>
<path d="M183.819 166.167C183.77 166.178 183.721 166.183 183.669 166.183C183.304 166.181 183.01 165.883 183.012 165.518L183.066 157.593C183.069 157.228 183.369 156.935 183.732 156.936C184.097 156.938 184.391 157.236 184.389 157.601L184.336 165.526C184.333 165.84 184.113 166.101 183.819 166.167Z" fill="#0A0A0A"/>
<path d="M187.455 156.899C187.975 159.215 186.519 161.513 184.204 162.033C181.888 162.553 179.59 161.097 179.07 158.782C178.55 156.466 180.006 154.168 182.321 153.648C184.636 153.128 186.935 154.583 187.455 156.899Z" fill="#AA84EB"/>
<path d="M182.743 150.022C180.518 148.985 177.891 150.719 176.831 152.633C175.768 154.553 175.581 156.874 176.155 158.985C176.91 161.765 179.704 163.415 182.482 162.387C184.987 161.46 186.633 158.152 185.059 155.68C184.837 155.331 184.635 154.975 184.421 154.623C184.219 154.17 184.252 154.262 184.52 154.901C184.429 154.415 184.429 154.512 184.521 155.194C184.372 155.824 184.357 155.924 184.476 155.495C184.638 155.105 184.591 155.178 184.336 155.715C184.558 155.379 184.737 155.02 184.872 154.637C185.078 153.475 185.102 153.355 184.944 154.275C185.401 152.316 184.518 150.85 182.743 150.022Z" fill="#403B33"/>
<path d="M178.855 160.039C178.747 161.125 179.914 162.279 180.753 162.795C181.153 163.041 181.544 162.426 181.144 162.178C180.684 161.894 180.264 161.573 179.909 161.161C179.588 160.789 179.388 160.313 179.04 159.971C178.972 159.906 178.864 159.947 178.855 160.039Z" fill="#251F15"/>
<path d="M180.475 160.37C180.653 160.877 181.105 161.289 181.538 161.591C181.925 161.86 182.626 162.275 183.104 162.125C183.299 162.064 183.433 161.802 183.255 161.638C183.082 161.478 182.911 161.44 182.69 161.366C182.434 161.281 182.197 161.165 181.964 161.03C181.532 160.779 181.21 160.42 180.807 160.136C180.661 160.033 180.411 160.188 180.475 160.37Z" fill="#251F15"/>
<path d="M182.264 159.217C182.565 160.269 183.81 161.257 184.938 161.137C185.292 161.099 185.28 160.556 184.967 160.464C184.488 160.322 184.056 160.293 183.614 160.026C183.201 159.777 182.871 159.428 182.566 159.058C182.456 158.924 182.216 159.05 182.264 159.217Z" fill="#251F15"/>
<path d="M166.542 170.044C166.248 170.11 165.938 169.968 165.802 169.685L162.366 162.544C162.208 162.215 162.346 161.82 162.675 161.662C163.004 161.506 163.399 161.642 163.558 161.971L166.994 169.112C167.152 169.441 167.014 169.836 166.685 169.994C166.637 170.017 166.59 170.033 166.542 170.044Z" fill="#0A0A0A"/>
<path d="M159.293 163.222C159.813 165.538 162.111 166.993 164.427 166.473C166.743 165.953 168.198 163.655 167.678 161.339C167.158 159.023 164.86 157.568 162.544 158.088C160.229 158.608 158.773 160.906 159.293 163.222Z" fill="#AA84EB"/>
<path d="M160.625 161.507C161.126 162.08 160.128 160.671 160.592 161.487C160.73 161.729 160.857 161.965 160.965 162.223C160.824 161.841 160.682 161.459 160.541 161.077C160.756 161.731 160.977 162.38 161.222 163.027C161.074 162.626 160.925 162.224 160.777 161.823C160.897 162.183 160.968 162.528 161.003 162.906C160.965 162.469 160.926 162.032 160.888 161.595C160.896 162.218 160.967 162.845 161.039 163.464C161.17 164.59 162.247 165.99 163.206 166.542C164.162 167.092 165.154 167.34 166.258 167.243C168.628 167.036 170.68 165.085 170.752 162.623C170.822 160.231 169.675 157.7 167.644 156.372C166.059 155.335 164.357 155.067 162.522 155.381C159.651 155.872 158.872 159.502 160.625 161.507Z" fill="#403B33"/>
<path d="M165.5 164.267C165.44 165.333 165.205 166.17 164.357 166.877C164.053 167.131 164.464 167.553 164.771 167.322C165.658 166.654 166.21 165.273 165.743 164.212C165.69 164.092 165.507 164.146 165.5 164.267Z" fill="#251F15"/>
<path d="M166.94 164.222C167.206 165.251 167.002 166.11 166.358 166.94C166.145 167.215 166.573 167.55 166.818 167.322C167.671 166.527 167.888 165.093 167.306 164.086C167.199 163.9 166.883 164 166.94 164.222Z" fill="#251F15"/>
<path d="M168.667 163.393C168.839 163.78 168.964 164.199 168.976 164.626C168.987 164.998 168.872 165.346 168.853 165.713C168.838 165.996 169.224 166.117 169.375 165.878C169.884 165.073 169.518 163.864 168.919 163.213C168.795 163.078 168.597 163.236 168.667 163.393Z" fill="#251F15"/>
<path d="M146.066 137.472L148.278 117.899C148.486 116.062 150.757 115.319 152.009 116.679L159.639 124.96L146.066 137.472Z" fill="#251F15"/>
<g opacity="0.5">
<path d="M150.245 120.257C149.096 119.971 148.711 120.904 149.073 121.882C149.224 122.29 149.55 122.664 149.747 123.055C148.445 122.986 146.819 123.854 148.98 126.524C147.845 126.222 146.38 127.743 148.053 128.687C148.606 128.999 152.863 130.492 153.705 130.501L156.442 127.978C155.405 126.031 154.314 124.151 152.873 122.454C152.211 121.673 151.29 120.517 150.245 120.257Z" fill="#251F15"/>
</g>
<path d="M151.131 119.371C149.982 119.085 149.597 120.018 149.959 120.996C150.11 121.404 150.436 121.778 150.633 122.169C149.331 122.1 147.705 122.968 149.866 125.638C148.731 125.336 147.266 126.857 148.939 127.801C149.492 128.113 153.749 129.606 154.591 129.615L157.328 127.092C156.291 125.145 155.2 123.265 153.759 121.568C153.096 120.787 152.176 119.631 151.131 119.371Z" fill="#8B4CF8"/>
<g opacity="0.3">
<path d="M151.569 123.392C151.223 127.857 149.623 132.007 147.664 135.999L159.639 124.961L152.009 116.68C151.716 116.362 151.365 116.169 151 116.068C151.777 118.49 151.691 121.818 151.569 123.392Z" fill="#251F15"/>
</g>
<path d="M187.654 128.135L177.287 111.386C176.314 109.814 173.943 110.114 173.392 111.879L170.035 122.627L187.654 128.135Z" fill="#251F15"/>
<g opacity="0.5">
<path d="M179.041 117.954C179.618 117.25 179.397 114.25 177.164 116.117C176.942 116.303 177.389 113.915 176.319 113.616C175.249 113.318 174.965 114.636 174.743 115.067C174.105 116.307 173.758 117.713 173.46 119.067C173.159 120.435 172.961 121.819 172.762 123.203L178.64 125.041C181.027 122.461 183.302 118.787 179.041 117.954Z" fill="#251F15"/>
</g>
<path d="M178.154 117.954C178.731 117.25 178.51 114.25 176.277 116.117C176.055 116.303 176.502 113.915 175.432 113.616C174.362 113.318 174.078 114.636 173.856 115.067C173.218 116.307 172.87 117.713 172.573 119.067C172.272 120.435 172.073 121.819 171.875 123.203L177.753 125.041C180.14 122.461 182.415 118.787 178.154 117.954Z" fill="#8B4CF8"/>
<g opacity="0.3">
<path d="M173.594 111.461C173.519 111.593 173.441 111.723 173.392 111.879L170.035 122.627L183.879 126.955C178.764 122.978 174.307 117.799 173.594 111.461Z" fill="#251F15"/>
</g>
<path d="M171.181 151.856C182.937 149.216 190.875 139.984 188.91 131.236C186.946 122.487 175.823 117.535 164.067 120.175C152.311 122.815 144.374 132.047 146.338 140.796C148.303 149.544 159.425 154.496 171.181 151.856Z" fill="#251F15"/>
<g opacity="0.5">
<path d="M184.667 143.169C182.687 144.89 180.505 146.388 178.163 147.572C175.221 149.06 171.971 149.647 168.878 150.727C168.58 150.831 168.347 150.564 168.317 150.3C168.237 149.736 168.123 149.18 167.99 148.627C166.369 149.057 164.871 149.678 163.151 149.561C162.893 149.544 162.611 149.288 162.724 149C162.934 148.464 163.114 147.94 163.277 147.403C158.078 147.855 153.063 146.299 149.723 142.082C147.876 139.75 146.833 136.968 146.675 134.107C145.983 136.291 145.833 138.561 146.336 140.8C148.3 149.549 159.423 154.501 171.179 151.862C178.828 150.144 184.858 145.635 187.598 140.284C186.682 141.3 185.707 142.266 184.667 143.169Z" fill="#251F15"/>
</g>
<path opacity="0.5" d="M171.564 137.358C170.815 137.292 170.065 137.226 169.316 137.161C169.039 137.137 168.752 137.089 168.473 137.102C168.366 137.107 167.814 137.122 168.125 137.149C167.819 137.123 167.534 137.186 167.268 137.341C167.525 137.191 167.094 137.379 166.985 137.421C166.708 137.527 166.451 137.712 166.196 137.861C165.547 138.241 164.898 138.621 164.248 139C163.102 139.67 162.199 140.726 162.963 142.121C163.889 143.812 166.229 143.771 167.528 142.566C168.017 142.113 168.342 141.491 168.5 140.824C168.928 141.36 169.487 141.783 170.124 141.983C171.802 142.511 173.963 141.559 174.06 139.629C174.14 138.042 172.894 137.474 171.564 137.358Z" fill="#251F15"/>
<path d="M171.564 136.471C170.815 136.405 170.065 136.339 169.316 136.274C169.039 136.25 168.752 136.202 168.473 136.215C168.366 136.22 167.814 136.235 168.125 136.262C167.819 136.236 167.534 136.299 167.268 136.454C167.525 136.305 167.094 136.492 166.985 136.534C166.708 136.64 166.451 136.825 166.196 136.974C165.547 137.354 164.898 137.734 164.248 138.113C163.102 138.783 162.199 139.839 162.963 141.234C163.889 142.925 166.229 142.884 167.528 141.679C168.017 141.226 168.342 140.604 168.5 139.937C168.928 140.472 169.487 140.896 170.124 141.096C171.802 141.624 173.963 140.672 174.06 138.742C174.14 137.156 172.894 136.588 171.564 136.471Z" fill="white"/>
<path d="M165.928 137.271L167.809 138.453C168.04 138.598 168.345 138.53 168.492 138.3L169.687 136.427C169.926 136.053 169.592 135.578 169.16 135.675L166.084 136.366C165.651 136.463 165.553 137.035 165.928 137.271Z" fill="#8B4CF8"/>
<path d="M164.144 132.625C164.792 135.511 162.978 138.375 160.092 139.023C157.206 139.671 154.342 137.857 153.694 134.971C153.046 132.085 154.86 129.221 157.746 128.573C160.631 127.925 163.496 129.739 164.144 132.625Z" fill="white"/>
<path d="M162.806 132.925C163.288 135.071 161.939 137.201 159.793 137.683C157.647 138.165 155.517 136.816 155.035 134.67C154.553 132.524 155.902 130.394 158.048 129.912C160.193 129.43 162.324 130.779 162.806 132.925Z" fill="#251F15"/>
<path d="M179.198 129.244C179.846 132.13 178.032 134.994 175.146 135.642C172.26 136.29 169.396 134.476 168.748 131.59C168.1 128.704 169.914 125.84 172.8 125.192C175.686 124.544 178.55 126.358 179.198 129.244Z" fill="white"/>
<path d="M177.861 129.544C178.343 131.69 176.994 133.82 174.848 134.302C172.702 134.784 170.572 133.435 170.09 131.289C169.608 129.143 170.957 127.013 173.103 126.531C175.249 126.049 177.379 127.398 177.861 129.544Z" fill="#251F15"/>
<path d="M174.788 131.705C175.015 132.714 174.38 133.715 173.372 133.942C172.363 134.168 171.362 133.534 171.136 132.526C170.909 131.517 171.544 130.516 172.552 130.29C173.56 130.063 174.562 130.697 174.788 131.705Z" fill="white"/>
<path d="M162.221 134.652C162.448 135.661 161.813 136.662 160.805 136.888C159.796 137.114 158.795 136.48 158.569 135.472C158.342 134.463 158.977 133.462 159.985 133.236C160.994 133.009 161.995 133.643 162.221 134.652Z" fill="white"/>
<path d="M176.535 136.887C183.004 133.353 189.344 129.512 195.663 125.715C196.251 125.362 195.756 124.416 195.158 124.769C188.804 128.518 182.401 132.264 176.205 136.269C175.833 136.509 176.133 137.106 176.535 136.887Z" fill="#403B33"/>
<path d="M176.689 138.282C183.775 136.224 191.289 133.542 197.951 130.388C198.366 130.191 198.116 129.491 197.667 129.622C190.581 131.694 183.194 134.673 176.527 137.844C176.29 137.957 176.433 138.356 176.689 138.282Z" fill="#403B33"/>
<path d="M177.298 139.389C183.447 139.821 190.077 139.705 196.218 139.188C196.691 139.148 196.761 138.451 196.255 138.426C190.048 138.122 183.437 138.252 177.256 138.906C176.974 138.936 177.033 139.37 177.298 139.389Z" fill="#403B33"/>
<path d="M159.689 139.976C152.376 139.004 144.986 138.355 137.639 137.682C136.949 137.619 136.904 138.685 137.587 138.753C144.922 139.484 152.296 140.246 159.655 140.675C160.112 140.702 160.129 140.035 159.689 139.976Z" fill="#403B33"/>
<path d="M160.074 141.538C152.691 141.522 144.743 141.986 137.448 143.143C136.991 143.215 137.055 143.957 137.519 143.957C144.889 143.96 152.829 143.172 160.115 142.004C160.376 141.961 160.339 141.538 160.074 141.538Z" fill="#403B33"/>
<path d="M159.866 142.81C153.999 144.862 147.966 147.57 142.486 150.499C142.04 150.737 142.399 151.338 142.845 151.172C148.618 149.014 154.662 146.285 160.035 143.265C160.264 143.136 160.136 142.716 159.866 142.81Z" fill="#403B33"/>
<g opacity="0.5">
<path d="M155.116 129.556C157.307 129.927 159.411 130.021 161.451 128.993C163.165 128.129 162.53 125.725 160.953 125.18C158.57 124.356 156.254 125.331 154.388 126.798C153.447 127.537 153.958 129.359 155.116 129.556Z" fill="#251F15"/>
</g>
<g opacity="0.5">
<path d="M174.306 121.545C172.138 121.282 169.74 121.825 168.289 123.573C167.745 124.229 167.496 125.029 167.858 125.852C168.17 126.561 168.936 127.201 169.765 127.134C172.044 126.952 173.788 125.823 175.473 124.362C176.68 123.317 175.579 121.7 174.306 121.545Z" fill="#251F15"/>
</g>
<path d="M155.116 129.124C157.307 129.495 159.411 129.589 161.451 128.561C163.165 127.697 162.53 125.293 160.953 124.748C158.57 123.924 156.254 124.899 154.388 126.366C153.447 127.105 153.958 128.928 155.116 129.124Z" fill="#403B33"/>
<path d="M174.306 121.114C172.138 120.851 169.74 121.394 168.289 123.142C167.745 123.798 167.496 124.598 167.858 125.421C168.17 126.13 168.936 126.77 169.765 126.704C172.044 126.522 173.788 125.393 175.473 123.932C176.68 122.886 175.579 121.269 174.306 121.114Z" fill="#403B33"/>
<path d="M170.24 124.858C170.672 124.994 171.115 125.026 171.513 124.782C171.686 124.676 171.602 124.434 171.415 124.418C171.067 124.389 170.722 124.425 170.375 124.369C170.058 124.318 169.922 124.758 170.24 124.858Z" fill="#575146"/>
<path d="M170.197 123.893C170.851 124.139 171.592 124.236 172.274 124.059C172.633 123.965 172.541 123.449 172.189 123.431C171.548 123.398 170.905 123.436 170.262 123.412C169.97 123.401 169.952 123.801 170.197 123.893Z" fill="#575146"/>
<path d="M172.225 123.284C172.568 123.31 172.922 123.333 173.247 123.203C173.443 123.124 173.491 122.815 173.247 122.754C172.882 122.664 172.523 122.738 172.162 122.819C171.888 122.881 171.972 123.265 172.225 123.284Z" fill="#575146"/>
<path d="M155.613 127.434C156.167 127.265 156.753 126.935 157.135 126.496C157.304 126.303 157.146 125.964 156.872 126.045C156.315 126.21 155.763 126.598 155.378 127.032C155.227 127.202 155.371 127.508 155.613 127.434Z" fill="#575146"/>
<path d="M156.96 127.653C157.614 127.385 158.279 127.097 158.833 126.651C159.115 126.424 158.811 125.918 158.478 126.04C157.837 126.274 157.264 126.678 156.72 127.083C156.465 127.273 156.604 127.799 156.96 127.653Z" fill="#575146"/>
<path d="M157.687 128.498C157.974 128.393 158.249 128.293 158.498 128.112C158.747 127.93 158.613 127.478 158.274 127.581C157.978 127.671 157.732 127.822 157.473 127.99C157.222 128.153 157.376 128.613 157.687 128.498Z" fill="#575146"/>
<path d="M170.176 138.907C170.321 139.11 170.471 139.266 170.68 139.405C170.96 139.592 171.257 139.18 171.032 138.949C170.872 138.784 170.711 138.675 170.505 138.577C170.311 138.486 170.022 138.692 170.176 138.907Z" fill="#403B33"/>
<path d="M171.084 138.789C171.213 139.004 171.325 139.122 171.561 139.21C171.758 139.283 171.987 139.055 171.913 138.858C171.826 138.623 171.709 138.511 171.492 138.381C171.237 138.227 170.931 138.533 171.084 138.789Z" fill="#403B33"/>
<path d="M171.181 137.738C171.359 138.011 171.541 138.155 171.867 138.195C172.107 138.225 172.229 137.919 172.129 137.739C171.988 137.485 171.782 137.378 171.5 137.323C171.275 137.28 171.036 137.516 171.181 137.738Z" fill="#403B33"/>
<path d="M164.904 139.002C164.64 139.136 164.461 139.277 164.293 139.522C164.095 139.811 164.523 140.109 164.762 139.884C164.97 139.689 165.077 139.473 165.166 139.204C165.218 139.046 165.034 138.935 164.904 139.002Z" fill="#403B33"/>
<path d="M165.255 139.983C164.946 140.032 164.767 140.207 164.654 140.484C164.561 140.712 164.871 140.92 165.063 140.798C165.312 140.64 165.437 140.415 165.429 140.115C165.425 140.019 165.343 139.969 165.255 139.983Z" fill="#403B33"/>
<path d="M165.971 139.962C165.848 140.202 165.772 140.372 165.866 140.637C165.958 140.898 166.27 140.928 166.427 140.71C166.59 140.484 166.561 140.298 166.51 140.032C166.463 139.786 166.083 139.744 165.971 139.962Z" fill="#403B33"/>
<path d="M180.772 127.341C181.082 127.588 181.441 127.913 181.851 127.747C182.016 127.68 182.175 127.505 182.1 127.308C181.935 126.875 181.552 126.802 181.123 126.738C180.816 126.692 180.453 127.087 180.772 127.341Z" fill="#403B33"/>
<path d="M181.84 126.427C182.293 126.66 182.713 127.075 183.219 127.135C183.563 127.176 183.761 126.731 183.603 126.467C183.293 125.948 182.533 125.868 181.979 125.917C181.729 125.939 181.578 126.292 181.84 126.427Z" fill="#403B33"/>
<path d="M182.608 128.3C182.645 128.547 182.712 128.694 182.899 128.853C183.204 129.112 183.655 128.791 183.46 128.42C183.333 128.178 183.178 128.081 182.925 127.983C182.721 127.904 182.583 128.129 182.608 128.3Z" fill="#403B33"/>
<path d="M148.964 132.428C148.296 132.461 147.809 133.148 148.152 133.776C148.314 134.073 148.778 134.073 148.941 133.776C149.108 133.47 149.124 133.11 149.237 132.785C149.295 132.617 149.139 132.419 148.964 132.428Z" fill="#403B33"/>
<path d="M149.495 133.49C149.263 133.844 149.022 134.214 149.054 134.653C149.071 134.895 149.371 135.058 149.557 134.862C149.882 134.518 149.927 134.072 149.975 133.62C150.004 133.347 149.622 133.296 149.495 133.49Z" fill="#403B33"/>
<path d="M150.376 133.225C150.272 133.506 150.257 133.726 150.411 133.988C150.509 134.153 150.731 134.174 150.867 134.047C151.086 133.842 151.13 133.623 151.11 133.325C151.081 132.895 150.524 132.827 150.376 133.225Z" fill="#403B33"/>
<path d="M168.714 144.478C168.634 144.824 168.648 145.219 168.929 145.466C169.044 145.567 169.257 145.572 169.333 145.414C169.497 145.074 169.399 144.715 169.184 144.416C169.065 144.25 168.768 144.245 168.714 144.478Z" fill="#403B33"/>
<path d="M169.804 145.149C169.716 145.474 169.711 145.812 169.909 146.094C170.044 146.286 170.389 146.29 170.448 146.024C170.524 145.681 170.419 145.373 170.206 145.097C170.097 144.954 169.858 144.949 169.804 145.149Z" fill="#403B33"/>
<path d="M170.507 143.674C170.571 143.964 170.684 144.184 170.898 144.39C171.132 144.615 171.436 144.379 171.398 144.099C171.357 143.801 171.231 143.591 171.034 143.366C170.814 143.116 170.444 143.388 170.507 143.674Z" fill="#403B33"/>
<path d="M185.657 149.494C185.873 149.698 186.095 149.833 186.4 149.809C186.69 149.787 186.805 149.482 186.626 149.263C186.432 149.026 186.179 148.964 185.883 148.948C185.606 148.933 185.46 149.308 185.657 149.494Z" fill="#403B33"/>
<path d="M186.957 149.114C186.979 149.447 187.135 149.759 187.395 149.97C187.646 150.173 188.179 149.993 188.02 149.607C187.877 149.261 187.643 148.994 187.288 148.862C187.134 148.804 186.947 148.954 186.957 149.114Z" fill="#403B33"/>
<path d="M187.49 151.499C187.579 151.824 187.747 152.093 187.984 152.331C188.291 152.639 188.695 152.25 188.545 151.898C188.411 151.585 188.214 151.352 187.948 151.147C187.722 150.974 187.424 151.259 187.49 151.499Z" fill="#403B33"/>
<path d="M155.327 156.888C155.084 157.252 154.799 157.6 154.673 158.025C154.55 158.44 155.123 158.65 155.348 158.31C155.588 157.947 155.669 157.497 155.789 157.083C155.873 156.798 155.482 156.656 155.327 156.888Z" fill="#403B33"/>
<path d="M156.054 158.555C155.732 158.863 155.594 159.24 155.707 159.678C155.797 160.027 156.245 159.907 156.286 159.6C156.323 159.322 156.349 159.043 156.429 158.774C156.494 158.554 156.212 158.405 156.054 158.555Z" fill="#403B33"/>
<path d="M157.127 157.784C156.958 158.179 156.937 158.54 157.037 158.955C157.128 159.333 157.602 159.251 157.726 158.955C157.875 158.598 157.912 158.251 157.818 157.874C157.746 157.584 157.259 157.477 157.127 157.784Z" fill="#403B33"/>
<path d="M162.78 158.699C163.136 159.012 163.576 159.185 164.025 159.321C164.406 159.436 164.572 158.922 164.281 158.714C163.926 158.46 163.54 158.222 163.107 158.137C162.804 158.077 162.507 158.46 162.78 158.699Z" fill="#575146"/>
<path d="M162.633 157.831C163.037 157.792 163.412 157.838 163.814 157.86C164.142 157.877 164.245 157.414 163.978 157.257C163.509 156.981 162.954 157.032 162.482 157.275C162.228 157.405 162.337 157.86 162.633 157.831Z" fill="#575146"/>
<path d="M181.453 150.999C181.058 150.974 180.732 150.961 180.401 151.215C180.081 151.46 179.871 151.808 179.916 152.22C179.957 152.597 180.54 152.89 180.736 152.442C180.863 152.152 181.075 151.555 181.453 151.513C181.779 151.478 181.79 151.02 181.453 150.999Z" fill="#575146"/>
<path d="M181.5 151.895C181.184 152.252 180.597 152.883 180.941 153.38C181.018 153.492 181.162 153.545 181.288 153.471C181.699 153.227 181.678 152.589 181.892 152.197C182.021 151.958 181.694 151.676 181.5 151.895Z" fill="#575146"/>
<g opacity="0.5">
<path d="M166.892 109.611C170.058 110.809 173.399 111.175 176.433 112.826C179.511 114.501 181.621 116.975 184.196 119.253C186.918 121.661 191.582 118.947 189.649 115.361C186.017 108.622 174.743 102.697 167.095 104.949C164.78 105.631 164.598 108.743 166.892 109.611Z" fill="white"/>
</g>
<g opacity="0.5">
<path d="M154.947 111.859C156.4 112.15 157.626 111.738 159.031 111.399C159.272 111.341 159.515 111.301 159.758 111.254C160.126 111.183 159.467 111.264 160.091 111.205C161.596 111.064 162.498 110.552 163.451 109.359C164.325 108.264 164.043 106.25 163.075 105.304C161.204 103.476 158.972 103.99 156.8 104.858C155.379 105.426 153.458 106.793 153.156 108.394C152.903 109.727 153.352 111.539 154.947 111.859Z" fill="white"/>
</g>
<path d="M233.927 343.963C239.261 340.79 245.798 344.473 243.84 351.071C243.152 353.39 241.599 355.388 240.76 357.654C239.383 361.377 239.813 365.204 243.036 367.808C246.409 370.533 251.068 370.506 254.673 368.252C256.356 367.199 257.777 365.691 258.843 364.023C260.812 360.944 261.147 354.325 265.609 353.938C267.626 353.763 267.698 350.715 265.609 350.741C259.393 350.819 258.934 356.83 256.582 361.209C254.543 365.005 249.842 368.32 245.627 365.62C240.991 362.65 244.289 357.935 245.839 354.312C247.655 350.068 247.842 345.432 244.035 342.193C240.663 339.324 236.013 339.664 232.72 342.398C231.838 343.13 232.972 344.531 233.927 343.963Z" fill="#8B4CF8"/>
<g opacity="0.5">
<path d="M265.608 350.74C261.64 350.79 260.019 353.259 258.753 356.176C258.751 356.385 258.54 356.7 258.726 356.808C260.136 357.624 259.683 360.209 257.123 364.73C253.612 370.93 243.72 370.395 240.987 362.744C240.179 360.482 241.083 358.073 241.618 355.765C241.299 356.382 240.999 357.007 240.759 357.654C239.382 361.376 239.812 365.203 243.035 367.807C246.408 370.532 251.067 370.506 254.672 368.252C256.355 367.199 257.776 365.69 258.842 364.022C260.811 360.943 261.146 354.325 265.608 353.938C267.625 353.762 267.698 350.714 265.608 350.74Z" fill="#8B4CF8"/>
</g>
<path d="M276.491 307.405C276.45 307.273 276.388 307.138 276.284 307.002C276.207 306.872 276.117 306.771 276.021 306.683C274.016 304.32 270.602 303.111 267.796 304.95C265.115 306.707 264.491 310.622 266.119 313.28C266.974 314.676 268.312 315.713 269.834 316.295C271.68 317 272.923 317.041 274.298 315.594C276.312 313.476 277.836 310.214 276.491 307.405Z" fill="#4C4C4C"/>
<path d="M273.979 308.469C273.026 307.072 271.029 306.382 269.53 307.164C268.055 307.933 267.469 309.944 268.108 311.48C268.709 312.923 270.213 313.875 271.772 314.028C271.962 314.047 272.158 313.977 272.299 313.848C274.196 312.123 274.896 309.814 273.979 308.469Z" fill="#8B4CF8"/>
<path opacity="0.5" d="M271.32 312.816C268.406 311.577 268.361 307.107 269.963 304.117C269.224 304.227 268.492 304.495 267.796 304.95C265.115 306.707 264.491 310.622 266.119 313.28C266.974 314.676 268.312 315.713 269.834 316.295C271.68 317 272.923 317.041 274.298 315.594C275.084 314.768 275.792 313.766 276.287 312.686C274.645 313.195 272.846 313.464 271.32 312.816Z" fill="#4C4C4C"/>
<path d="M285.074 349.608C284.304 349.401 283.626 349.77 282.927 350.058C282.781 350.118 282.634 350.179 282.488 350.241C282.02 349.493 281.265 348.839 280.651 348.4C279.449 347.54 277.847 346.846 276.349 347.044C275.742 347.124 275.242 348.059 275.985 348.389C277.159 348.91 278.299 349.315 279.249 350.217C279.925 350.859 280.328 351.758 281.011 352.342C280.865 352.744 280.718 353.146 280.601 353.558C280.426 354.173 280.211 354.749 280.584 355.332C280.894 355.817 281.481 355.858 281.904 355.502C282.424 355.064 282.374 354.424 282.391 353.8C282.394 353.686 282.383 353.572 282.384 353.458C282.722 353.729 283.064 353.995 283.399 354.257C283.762 354.541 284.36 354.765 284.788 354.436C285.043 354.241 285.233 354.071 285.315 353.751C285.435 353.279 285.241 352.691 284.788 352.456C284.422 352.266 284.05 352.073 283.675 351.883C284.311 351.72 285.037 351.585 285.454 351.047C285.835 350.557 285.76 349.793 285.074 349.608Z" fill="#8B4CF8"/>
<path opacity="0.5" d="M280.263 351.482C280.742 350.49 281.035 349.49 280.915 348.602C280.826 348.534 280.735 348.46 280.651 348.4C279.449 347.54 277.847 346.846 276.349 347.044C275.742 347.124 275.242 348.059 275.985 348.389C277.159 348.91 278.299 349.315 279.249 350.217C279.643 350.59 279.946 351.047 280.263 351.482Z" fill="#8B4CF8"/>
<path d="M292.197 323.791C291.707 323.425 291.067 323.347 290.467 323.26C290.497 323.247 290.526 323.239 290.556 323.226C291.22 322.933 292.026 322.353 292.214 321.625C292.368 321.03 291.788 320.306 291.14 320.551C290.549 320.775 290.138 321.278 289.638 321.657C289.396 321.84 289.135 322.003 288.866 322.153C289.058 321.595 289.208 321.026 289.314 320.424C289.408 319.889 289.17 319.339 288.611 319.186C288.125 319.052 287.467 319.351 287.373 319.889C287.223 320.746 287.144 321.573 287.177 322.424C286.228 322.645 285.319 323.289 284.477 323.738C283.034 324.508 281.6 325.213 280.396 326.339C280.159 326.561 280.326 327.073 280.682 327.03C282.313 326.833 283.752 326.214 285.266 325.61C286.164 325.251 287.339 324.962 288.144 324.339C288.672 324.644 289.22 324.907 289.79 325.129C290.394 325.365 291.053 325.671 291.712 325.591C292.684 325.472 292.993 324.386 292.197 323.791Z" fill="#8B4CF8"/>
<path opacity="0.5" d="M289.336 324.188C288.243 323.577 287.555 322.86 287.186 322.053C287.186 322.177 287.173 322.298 287.177 322.423C286.228 322.644 285.319 323.288 284.477 323.737C283.034 324.507 281.6 325.212 280.396 326.338C280.159 326.56 280.326 327.072 280.682 327.029C282.313 326.832 283.752 326.213 285.266 325.609C286.164 325.25 287.339 324.961 288.144 324.338C288.672 324.643 289.22 324.906 289.79 325.128C290.394 325.364 291.053 325.67 291.712 325.59C291.955 325.56 292.157 325.47 292.311 325.343C291.261 325.081 290.251 324.7 289.336 324.188Z" fill="#8B4CF8"/>
<path d="M279.651 313.461C271.809 310.953 265.584 320.585 262.692 326.542C259.043 334.059 255.468 343.718 259.524 351.562C263.557 359.363 273.69 357.639 278.099 351.562C280.65 348.047 280.22 344.259 280.713 340.354C281.064 337.579 281.951 334.633 282.706 331.85C284.364 325.747 288.344 316.241 279.651 313.461Z" fill="#5A319F"/>
<g opacity="0.3">
<path d="M265.738 327.731C267.662 326.365 269.089 324.442 267.642 322.183C267.252 321.574 266.753 321.032 266.21 320.529C264.761 322.577 263.57 324.73 262.69 326.543C262.111 327.736 261.536 328.986 260.992 330.272C262.65 329.555 264.277 328.768 265.738 327.731Z" fill="#5A319F"/>
<path d="M284.675 318.131C284.584 320.753 283.612 323.204 282.396 325.557C280.839 328.569 279.786 331.422 278.963 334.692C278.294 337.35 277.649 340.025 276.678 342.593C275.102 346.758 272.107 351.772 267.199 352.356C264.457 352.683 261.701 351.23 259.97 349.156C258.763 347.71 258.269 345.935 257.742 344.171C257.796 346.726 258.315 349.225 259.523 351.562C263.556 359.363 273.689 357.639 278.098 351.562C280.649 348.047 280.219 344.259 280.712 340.354C281.063 337.579 281.95 334.633 282.705 331.85C283.808 327.789 285.935 322.222 284.675 318.131Z" fill="#5A319F"/>
</g>
<path d="M271.797 323.934C273.827 323.934 273.831 320.779 271.797 320.779C269.767 320.779 269.764 323.934 271.797 323.934Z" fill="#251F15"/>
<path d="M276.667 316.987C278.59 316.987 278.594 313.998 276.667 313.998C274.743 313.997 274.74 316.987 276.667 316.987Z" fill="#251F15"/>
<path d="M277.775 320.472C279.338 320.472 279.34 318.043 277.775 318.043C276.212 318.043 276.209 320.472 277.775 320.472Z" fill="#8B4CF8"/>
<path d="M279.514 323.927C279.834 323.286 280.138 322.641 280.514 322.03C280.915 321.378 281.463 320.909 281.949 320.333C282.702 319.439 281.584 318.368 280.687 319.071C279.41 320.071 278.561 322.089 278.624 323.687C278.642 324.129 279.291 324.373 279.514 323.927Z" fill="#251F15"/>
<path d="M275.334 323.019C272.353 325.375 269.537 328.022 266.65 330.499C266.317 330.785 266.75 331.339 267.118 331.105C270.325 329.075 273.544 326.445 275.833 323.403C276.068 323.091 275.59 322.816 275.334 323.019Z" fill="#4C4C4C"/>
<path d="M276.149 324.18C273.805 327.457 272.264 331.62 271.296 335.506C271.13 336.173 272.094 336.426 272.317 335.787C273.658 331.941 275.33 328.237 276.707 324.415C276.832 324.068 276.337 323.918 276.149 324.18Z" fill="#4C4C4C"/>
<path d="M280.778 316.931C281.781 314.933 283.009 313.044 284.528 311.398C284.902 310.993 284.341 310.447 283.929 310.799C282.089 312.371 280.789 314.326 280.164 316.671C280.068 317.03 280.603 317.28 280.778 316.931Z" fill="#4C4C4C"/>
<path d="M282.519 317.649C285.636 316.202 288.599 314.385 291.516 312.576C292.02 312.263 291.574 311.498 291.051 311.78C288.03 313.41 284.98 315.074 282.173 317.057C281.811 317.313 282.118 317.835 282.519 317.649Z" fill="#4C4C4C"/>
<path d="M290.29 330.466C289.73 329.817 288.72 329.581 287.728 329.52C288.331 329.209 288.963 328.851 289.311 328.266C289.615 327.754 289.231 326.996 288.603 327.032C287.824 327.077 287.167 327.54 286.546 327.984C286.149 328.268 285.711 328.56 285.366 328.924C284.034 328.365 282.156 328.567 281.014 329.055C279.308 329.785 278.052 331.367 277.886 333.219C277.827 333.873 278.678 333.928 278.988 333.519C279.783 332.473 280.696 331.58 282.005 331.242C283.188 330.937 284.111 331.485 285.156 331.585C285.198 331.849 285.263 332.112 285.374 332.386C285.644 333.049 286.065 333.9 286.85 334.028C287.526 334.138 288.007 333.657 287.897 332.981C287.805 332.418 287.311 332.061 287.013 331.606C286.888 331.415 286.772 331.212 286.66 331.006C286.697 330.935 286.726 330.86 286.745 330.782C287.122 330.885 287.494 331.008 287.851 331.17C288.481 331.456 288.996 331.828 289.703 331.885C290.479 331.945 290.719 330.963 290.29 330.466Z" fill="#8B4CF8"/>
<path opacity="0.5" d="M290.29 330.465C289.73 329.816 288.72 329.581 287.728 329.52C288.331 329.209 288.963 328.851 289.311 328.266C289.506 327.938 289.417 327.512 289.164 327.256C288.199 328.585 286.179 330.423 284.082 331.369C284.436 331.459 284.789 331.55 285.157 331.585C285.199 331.849 285.264 332.112 285.375 332.386C285.645 333.049 286.066 333.9 286.851 334.028C287.527 334.138 288.008 333.657 287.898 332.981C287.806 332.418 287.312 332.061 287.014 331.606C286.889 331.415 286.773 331.211 286.661 331.005C286.698 330.934 286.727 330.86 286.746 330.782C287.123 330.885 287.495 331.007 287.852 331.169C288.482 331.455 288.997 331.827 289.704 331.884C290.479 331.944 290.719 330.962 290.29 330.465Z" fill="#8B4CF8"/>
<path d="M279.012 360.533C278.581 359.985 277.94 360.115 277.332 360.193C277.099 360.223 276.866 360.253 276.632 360.283C276.873 356.809 275.441 353.714 273.663 350.827C273.234 350.13 272.266 350.737 272.587 351.456C273.881 354.345 273.92 357.572 274.062 360.663C274.071 360.869 274.115 361.049 274.185 361.203C273.971 361.333 273.767 361.496 273.566 361.666C272.968 362.172 272.364 362.689 272.566 363.557C272.641 363.879 272.942 364.192 273.269 364.26C274.151 364.444 274.642 363.86 275.143 363.243C275.177 363.201 275.21 363.158 275.244 363.116C275.422 363.513 275.614 363.904 275.819 364.28C276.396 365.338 278.098 364.329 277.425 363.341C277.086 362.843 276.702 362.357 276.307 361.887C276.649 361.931 276.99 361.975 277.332 362.019C277.94 362.097 278.58 362.226 279.012 361.679C279.308 361.302 279.31 360.913 279.012 360.533Z" fill="#8B4CF8"/>
<path opacity="0.5" d="M279.013 360.534C278.582 359.986 277.941 360.116 277.333 360.194C277.1 360.224 276.867 360.254 276.633 360.284C276.727 358.931 276.562 357.637 276.227 356.389C276.273 357.767 276.039 359.144 275.429 360.433C274.913 361.525 274.039 361.997 273.38 361.827C272.852 362.285 272.387 362.781 272.567 363.558C272.642 363.88 272.943 364.193 273.27 364.261C274.152 364.445 274.643 363.861 275.144 363.244C275.178 363.202 275.211 363.159 275.245 363.117C275.423 363.514 275.615 363.905 275.82 364.281C276.397 365.339 278.099 364.33 277.426 363.342C277.087 362.844 276.703 362.358 276.308 361.888C276.65 361.932 276.991 361.976 277.333 362.02C277.941 362.098 278.581 362.227 279.013 361.68C279.309 361.303 279.311 360.914 279.013 360.534Z" fill="#8B4CF8"/>
<path d="M266.846 322.39C264.98 320.813 263.129 319.385 260.803 318.617C260.699 318.566 260.586 318.523 260.452 318.498C260.318 318.459 260.193 318.446 260.072 318.444C257.853 318.115 255.464 318.523 253.894 320.268C252.111 322.251 252.333 325.278 253.913 327.303C258.247 332.86 264.137 328.434 267.054 324C267.353 323.545 267.274 322.752 266.846 322.39Z" fill="#4C4C4C"/>
<path d="M260.11 320.67C258.337 320.243 256.163 320.881 255.448 322.559C255.051 323.491 255.173 324.6 255.662 325.487C256.151 326.374 256.977 327.045 257.9 327.463C260.03 328.427 262.242 326.76 263.808 324.799C264.373 324.091 264.241 323.059 263.528 322.501C262.489 321.687 261.38 320.976 260.11 320.67Z" fill="#8B4CF8"/>
<path opacity="0.5" d="M266.846 322.39C264.98 320.813 263.129 319.385 260.803 318.617C260.699 318.566 260.586 318.523 260.452 318.498C260.318 318.459 260.193 318.446 260.072 318.444C257.853 318.115 255.464 318.523 253.894 320.268C252.111 322.251 252.333 325.278 253.913 327.303C254 327.415 254.089 327.516 254.178 327.62C254.84 326.084 255.802 324.569 257.383 323.473C261.613 320.539 265.324 324.273 265.92 325.532C266.333 325.031 266.715 324.516 267.055 323.999C267.353 323.545 267.274 322.752 266.846 322.39Z" fill="#4C4C4C"/>
<path d="M261.447 343.854C261.354 344.293 261.362 344.733 261.355 345.18C261.347 345.646 261.276 346.076 261.638 346.426C261.83 346.612 262.224 346.662 262.407 346.426C262.731 346.01 262.651 345.683 262.578 345.186C262.512 344.739 262.472 344.28 262.32 343.853C262.182 343.466 261.547 343.384 261.447 343.854Z" fill="#4C4C4C"/>
<path d="M263.687 345.504C263.624 345.936 263.6 346.346 263.629 346.783C263.658 347.22 263.637 347.677 263.861 348.064C264.081 348.443 264.691 348.371 264.802 347.941C264.915 347.505 264.774 347.071 264.684 346.64C264.595 346.212 264.463 345.824 264.286 345.425C264.178 345.179 263.727 345.232 263.687 345.504Z" fill="#4C4C4C"/>
<path d="M265.361 343.72C265.244 344.301 265.163 345.022 265.452 345.56C265.667 345.959 266.262 345.844 266.385 345.438C266.548 344.901 266.339 344.222 266.129 343.72C265.995 343.398 265.448 343.288 265.361 343.72Z" fill="#4C4C4C"/>
<path d="M235.024 410.81C233.631 411.095 232.271 411.846 230.96 412.395C230.152 412.733 229.3 413.049 228.545 413.503C228.308 413.422 228.044 413.438 227.848 413.583C226.891 413.238 225.875 413.116 224.857 413.206C224.218 413.262 224.079 414.11 224.705 414.327C225.226 414.508 225.712 414.737 226.19 414.986C225.605 415.347 225.108 415.725 224.692 416.29C224.32 416.796 225.019 417.324 225.487 417.085C225.858 416.896 226.342 416.736 226.832 416.557C226.746 417.047 226.72 417.545 226.964 417.984C227.107 418.242 227.492 418.357 227.745 418.189C228.357 417.781 228.526 417.024 228.713 416.346C228.806 416.009 228.912 415.675 228.992 415.338C230.042 415.142 231.057 414.66 232.038 414.268C233.285 413.771 234.669 413.379 235.799 412.649C236.774 412.02 236.145 410.58 235.024 410.81Z" fill="#8B4CF8"/>
<path opacity="0.5" d="M235.023 410.81C233.63 411.095 232.27 411.846 230.959 412.395C230.602 412.544 230.237 412.691 229.875 412.845C229.897 413.579 229.964 414.31 230.088 415.034C230.752 414.807 231.402 414.522 232.037 414.269C233.284 413.772 234.668 413.38 235.798 412.65C236.773 412.02 236.144 410.58 235.023 410.81Z" fill="#8B4CF8"/>
<path d="M264.59 420.099C264.169 419.51 263.703 418.926 263.222 418.384C263.115 418.263 263.011 418.132 262.906 418C263.397 417.861 263.846 417.641 264.128 417.272C264.311 417.032 264.23 416.595 264.015 416.4C263.358 415.803 262.091 415.895 261.26 416C261.044 416.027 260.85 416.108 260.675 416.214C259.83 415.436 258.973 414.672 258.085 413.939C257.002 413.046 255.848 411.703 254.451 411.406C253.591 411.223 252.882 412.089 253.314 412.885C253.995 414.14 255.597 414.873 256.76 415.657C257.737 416.315 258.736 416.932 259.745 417.534C259.735 418.31 259.7 419.102 259.727 419.874C259.736 420.149 259.747 420.426 259.762 420.701C259.766 420.782 259.794 421.054 259.8 421.125C259.88 421.69 260.552 421.926 260.9 421.412C261.238 420.912 261.487 420.301 261.662 419.666C261.713 419.709 261.764 419.753 261.814 419.793C262.429 420.301 263.219 420.703 264.004 420.861C264.404 420.942 264.875 420.499 264.59 420.099Z" fill="#8B4CF8"/>
<path opacity="0.5" d="M258.464 414.272C258.335 414.164 258.215 414.047 258.085 413.939C257.002 413.046 255.848 411.703 254.451 411.406C253.591 411.223 252.882 412.089 253.314 412.885C253.995 414.14 255.597 414.873 256.76 415.657C257.266 415.998 257.779 416.328 258.296 416.65C258.278 415.841 258.332 415.041 258.464 414.272Z" fill="#8B4CF8"/>
<path d="M259.8 421.124C259.8 421.12 259.798 421.117 259.797 421.113C259.802 421.149 259.803 421.147 259.8 421.124Z" fill="#8B4CF8"/>
<path d="M240.385 378.491C240.533 377.955 240.591 377.381 240.677 376.846C240.806 376.043 240.88 375.261 240.725 374.457C240.643 374.027 240.003 373.858 239.719 374.191C239.199 374.803 238.879 375.507 238.597 376.254C238.246 375.831 237.878 375.435 237.45 375.076C236.803 374.534 235.547 375.025 235.889 375.985C236.031 376.383 236.196 376.766 236.38 377.14C235.447 377.184 234.509 377.33 233.735 377.674C233.176 377.923 233.209 378.848 233.735 379.108C235.043 379.753 236.92 379.821 238.359 379.768C238.407 379.766 238.448 379.756 238.493 379.751C238.643 379.84 238.811 379.887 238.984 379.897C240.013 382.163 241.306 384.431 242.823 386.332C243.961 387.759 246.278 385.916 245.333 384.395C244.028 382.294 242.229 380.226 240.385 378.491Z" fill="#8B4CF8"/>
<path opacity="0.5" d="M245.333 384.395C244.192 382.558 242.669 380.761 241.074 379.176C240.388 379.626 239.734 379.888 239.062 380.059C240.079 382.271 241.342 384.477 242.822 386.332C243.961 387.759 246.278 385.917 245.333 384.395Z" fill="#8B4CF8"/>
<path d="M265.866 384.973C265.312 384.514 264.727 384.097 264.113 383.733C264.626 383.358 265.108 382.939 265.648 382.601C266.196 382.259 265.85 381.354 265.2 381.539C264.801 381.653 264.359 381.731 263.906 381.81C263.913 381.755 263.926 381.697 263.932 381.643C264.019 380.888 264.08 380.317 263.668 379.648C263.527 379.419 263.237 379.345 263 379.473C261.983 380.024 261.509 381.468 261.215 382.629C261.089 382.708 260.964 382.787 260.852 382.885C260.79 382.923 260.725 382.956 260.668 383.004C260.188 383.193 259.718 383.416 259.256 383.629C257.984 384.214 256.663 384.767 255.564 385.642C254.48 386.506 255.652 388.376 256.907 387.949C258.226 387.501 259.42 386.656 260.587 385.907C260.913 385.698 261.242 385.482 261.566 385.257C262.813 385.427 264.014 385.664 265.188 386.136C265.827 386.392 266.386 385.404 265.866 384.973Z" fill="#8B4CF8"/>
<path opacity="0.5" d="M258.491 383.977C257.467 384.446 256.446 384.939 255.568 385.639C254.484 386.503 255.656 388.373 256.911 387.946C258.23 387.498 259.424 386.653 260.591 385.904C260.715 385.825 260.839 385.739 260.963 385.657C259.904 385.243 259.018 384.696 258.491 383.977Z" fill="#8B4CF8"/>
<path d="M248.629 378.611C243.366 379.424 240.296 385.865 238.393 390.244C236.047 395.642 233.362 401.08 232.182 406.87C230.797 413.669 234.148 420.761 241.163 422.688C247.712 424.487 255.344 420.485 256.981 413.707C258.843 406.001 263.352 376.335 248.629 378.611Z" fill="#5A319F"/>
<g opacity="0.3">
<path d="M239.861 403.883C242.625 402.971 244.078 400.303 244.053 397.496C244.015 393.22 241.436 391.439 238.224 390.631C236.53 394.507 234.691 398.408 233.375 402.449C235.156 403.935 237.459 404.676 239.861 403.883Z" fill="#5A319F"/>
<path d="M258.959 396.441C255.211 395.185 248.941 395.34 250.257 401.111C250.724 403.158 251.99 405.144 253.805 406.216C254.653 406.716 256.132 406.897 256.681 407.851C257.605 409.459 256.116 411.903 255.237 413.157C250.888 419.367 247.797 418.83 246.18 417.669C244.563 416.508 245.101 415.224 244.171 414.599C242.241 413.3 240.948 415.409 240.466 416.508C239.999 417.574 239.987 419.672 238.608 419.274C236.815 418.757 234.51 415.984 233.798 414.525C233.002 412.892 232.219 406.689 232.182 406.868C230.797 413.667 234.148 420.759 241.164 422.687C247.713 424.486 255.345 420.484 256.982 413.705C257.759 410.487 258.994 403.441 259.101 396.489C259.055 396.474 259.005 396.457 258.959 396.441Z" fill="#5A319F"/>
</g>
<path d="M245.006 388.122C246.716 388.122 246.719 385.465 245.006 385.465C243.296 385.464 243.293 388.122 245.006 388.122Z" fill="#251F15"/>
<path d="M252.311 389.817C254.208 389.817 254.211 386.869 252.311 386.869C250.414 386.869 250.411 389.817 252.311 389.817Z" fill="#251F15"/>
<path d="M249.434 383.557C250.97 383.557 250.973 381.17 249.434 381.17C247.898 381.17 247.896 383.557 249.434 383.557Z" fill="#8B4CF8"/>
<path d="M261.525 396.325C261.496 396.225 261.456 396.124 261.399 396.022C261.348 395.912 261.288 395.821 261.224 395.739C259.512 392.993 255.935 391.441 252.701 392.127C249.129 392.885 249.517 398.99 250.792 401.369C252.447 404.456 256.515 406.571 259.791 404.49C262.453 402.799 262.616 398.99 261.525 396.325Z" fill="#4C4C4C"/>
<path d="M259.711 398.277C260.115 400.234 259.082 402.398 257.213 402.895C255.375 403.384 253.211 402.101 252.437 400.27C251.71 398.548 252.124 396.545 253.256 395.191C253.394 395.026 253.611 394.933 253.833 394.934C256.815 394.942 259.322 396.394 259.711 398.277Z" fill="#8B4CF8"/>
<path d="M244.127 392.161C244.181 391.609 243.678 391 243.152 390.88C238.38 389.791 231.8 390.202 231.393 396.414C231.22 399.067 232.682 401.861 235.385 402.574C238.024 403.271 240.517 401.722 242.054 399.686C242.124 399.61 242.19 399.525 242.248 399.424C242.322 399.319 242.372 399.215 242.41 399.111C243.566 396.947 243.887 394.587 244.127 392.161Z" fill="#4C4C4C"/>
<path d="M240.485 398.107C239.509 399.648 237.504 400.703 235.823 399.996C234.89 399.604 234.205 398.723 233.939 397.746C233.673 396.769 233.797 395.711 234.169 394.769C235.027 392.594 237.776 392.252 240.265 392.569C241.164 392.683 241.787 393.516 241.664 394.414C241.485 395.72 241.184 397.003 240.485 398.107Z" fill="#8B4CF8"/>
<path d="M207.006 432.395C206.446 428.001 209.232 423.586 213.833 423.194C218.731 422.776 220.477 426.363 222.93 429.661C225.383 432.959 228.636 434.81 232.828 434.618C241.655 434.214 247.447 425.76 244.653 417.602C244.002 415.7 241.327 416.474 241.671 418.424C242.29 421.939 242.534 424.362 240.14 427.297C237.933 430.003 234.878 431.67 231.314 431.37C225.146 430.85 224.24 423.652 219.149 421.223C211.216 417.439 203.892 424.66 205.64 432.58C205.806 433.33 207.106 433.181 207.006 432.395Z" fill="#8B4CF8"/>
<g opacity="0.5">
<path d="M244.653 417.603C244.047 415.834 241.694 416.381 241.644 418.035C243.913 418.127 244.129 420.675 243.895 422.594C243.51 425.754 242.327 428.276 239.776 430.266C236.722 432.649 232.493 433.959 228.65 433.126C227.323 432.839 226.037 432.351 224.797 431.731C226.967 433.709 229.621 434.765 232.827 434.618C241.654 434.215 247.446 425.761 244.653 417.603Z" fill="#8B4CF8"/>
</g>
<path d="M246.63 381.397C242.793 380.457 237.75 380.642 233.859 381.14C233.218 381.222 233.22 382.051 233.859 382.136C237.754 382.656 242.792 382.867 246.63 381.949C246.904 381.884 246.902 381.463 246.63 381.397Z" fill="#4C4C4C"/>
<path d="M246.239 383.02C242.746 382.805 238.844 384.082 235.655 385.384C235.1 385.611 235.297 386.477 235.91 386.309C239.319 385.374 243.014 384.838 246.322 383.632C246.651 383.512 246.599 383.042 246.239 383.02Z" fill="#4C4C4C"/>
<path d="M252.206 383.02C256.719 383.636 261.222 384.363 265.743 384.911C266.364 384.986 266.493 383.959 265.89 383.822C261.453 382.814 256.861 382.354 252.32 382.176C251.847 382.157 251.721 382.953 252.206 383.02Z" fill="#4C4C4C"/>
<path d="M252.597 384.607C255.112 386.19 258.343 387.117 261.16 388.007C261.714 388.182 262.113 387.291 261.563 387.051C258.847 385.863 255.807 384.426 252.87 383.958C252.487 383.897 252.236 384.38 252.597 384.607Z" fill="#4C4C4C"/>
<path d="M246.872 410.395C246.947 411.235 246.979 412.091 247.166 412.916C247.246 413.268 247.822 413.197 247.802 412.83C247.756 411.985 247.553 411.154 247.394 410.325C247.339 410.033 246.846 410.095 246.872 410.395Z" fill="#4C4C4C"/>
<path d="M248.298 408.741C248.23 409.49 248.277 410.481 248.757 411.086C248.933 411.308 249.264 411.153 249.34 410.932C249.589 410.212 249.245 409.232 248.94 408.567C248.784 408.226 248.326 408.438 248.298 408.741Z" fill="#4C4C4C"/>
<path d="M250.79 409.65C250.453 410.593 250.285 411.829 250.462 412.818C250.529 413.19 251.016 413.097 251.127 412.818C251.497 411.882 251.54 410.638 251.398 409.65C251.35 409.313 250.882 409.391 250.79 409.65Z" fill="#4C4C4C"/>
<path d="M236.806 411.19C236.418 412.206 236.496 413.35 237.272 414.157C237.487 414.38 237.927 414.152 237.813 413.842C237.521 413.046 237.26 412.208 237.391 411.351C237.449 410.967 236.946 410.821 236.806 411.19Z" fill="#4C4C4C"/>
<path d="M238.835 412.309C238.596 413.029 238.659 413.861 238.779 414.596C238.837 414.953 239.441 414.953 239.5 414.596C239.62 413.859 239.684 413.03 239.444 412.309C239.344 412.009 238.935 412.009 238.835 412.309Z" fill="#4C4C4C"/>
<path opacity="0.5" d="M255.85 401.653C252.868 400.498 251.155 396.252 251.27 392.891C249.287 394.78 249.724 399.376 250.792 401.369C252.447 404.456 256.515 406.571 259.791 404.49C260.806 403.845 261.456 402.892 261.813 401.813C260.166 401.892 257.544 402.309 255.85 401.653Z" fill="#4C4C4C"/>
<path opacity="0.5" d="M243.681 391.172C242.469 393.532 240.017 397.474 237.755 398.645C235.118 400.009 232.404 398.887 231.429 396.144C231.42 396.237 231.399 396.318 231.393 396.414C231.22 399.067 232.682 401.861 235.385 402.574C238.024 403.271 240.517 401.722 242.054 399.686C242.124 399.61 242.19 399.525 242.248 399.424C242.322 399.319 242.372 399.215 242.41 399.111C243.565 396.946 243.887 394.587 244.126 392.16C244.162 391.806 243.965 391.429 243.681 391.172Z" fill="#4C4C4C"/>
<path d="M210.499 336.396C215.907 341.592 215.055 348.894 211.138 354.847C209.851 356.804 207.801 358.745 205.38 359.058C200.964 359.628 202.617 354.967 205.489 354.358C209.762 353.452 211.261 357.977 211.102 361.293C210.946 364.545 209.363 368.012 206.457 369.699C203.175 371.604 200.339 370.263 197.19 369.028C196.249 368.659 195.369 369.92 195.889 370.72C198.432 374.633 204.284 374.572 208.006 372.347C211.919 370.008 214.061 365.286 214.013 360.828C213.984 358.034 213.174 354.904 210.892 353.106C208.529 351.245 204.301 350.82 202.028 352.973C200.248 354.659 198.988 358.45 200.601 360.614C202.837 363.614 208.091 361.426 210.359 359.612C216.769 354.484 220.664 339.303 211.046 335.46C210.509 335.246 210.119 336.031 210.499 336.396Z" fill="#8B4CF8"/>
<g opacity="0.5">
<path d="M216.413 341.648C216.467 343.902 216.219 346.177 215.645 348.438C215.275 349.893 214.701 353.431 213.104 354.195C212.117 354.667 211.376 353.895 210.836 353.069C209.086 351.722 206.356 351.151 204.136 351.8C206.617 351.594 209.345 352.717 210.657 354.726C213.035 358.364 213.284 363.624 211.904 366.338C210.299 369.493 206.965 372.213 205.593 372.427C204.348 372.621 202.327 372.814 202.707 370.629C200.872 370.542 199.087 369.773 197.19 369.029C196.249 368.66 195.369 369.921 195.889 370.721C198.432 374.634 204.284 374.573 208.006 372.348C211.919 370.009 214.061 365.288 214.013 360.829C213.998 359.371 213.762 357.825 213.223 356.421C216.03 352.284 217.634 346.306 216.413 341.648Z" fill="#8B4CF8"/>
</g>
<path d="M163.372 368.561C160.669 365.143 155.483 368.094 156.082 372.054C155.78 372.229 155.518 372.452 155.291 372.766C154.874 373.342 154.805 373.914 154.913 374.6C154.965 374.932 155.35 375.171 155.664 375.171C156.029 375.171 156.29 374.923 156.415 374.6C156.444 374.526 156.471 374.447 156.499 374.371C156.579 374.813 156.701 375.245 156.911 375.639C157.265 376.304 158.171 375.932 158.226 375.283C158.275 374.702 158.166 374.113 157.977 373.546C158.362 373.789 158.767 373.999 159.221 374.14C160.096 374.412 160.531 373.189 159.821 372.717C159.231 372.324 158.57 372.117 157.896 371.939C157.994 369.457 160.455 368.152 162.732 369.391C163.289 369.696 163.732 369.016 163.372 368.561Z" fill="#8B4CF8"/>
<path opacity="0.5" d="M163.371 368.561C162.123 366.983 160.351 366.773 158.858 367.382C158.895 368.241 158.54 369.098 157.699 369.98C156.139 371.615 157.764 374.082 157.465 375.991C157.822 375.988 158.19 375.69 158.224 375.284C158.273 374.703 158.164 374.114 157.975 373.547C158.36 373.79 158.765 374 159.219 374.141C160.094 374.413 160.529 373.19 159.819 372.718C159.229 372.325 158.568 372.118 157.894 371.94C157.992 369.458 160.453 368.153 162.73 369.392C163.288 369.696 163.731 369.016 163.371 368.561Z" fill="#8B4CF8"/>
<path d="M180.562 381.624C177.378 381.209 175.208 384.657 176.136 387.464C175.156 387.521 174.113 387.731 173.338 388.27C172.761 388.671 172.95 389.609 173.705 389.624C174.213 389.634 174.733 389.522 175.238 389.344C175.212 389.385 175.183 389.422 175.157 389.465C174.851 389.974 175.486 390.684 176.009 390.317C176.577 389.919 177.025 389.472 177.431 388.951C177.632 389.256 177.861 389.542 178.122 389.794C178.803 390.452 179.752 389.626 179.377 388.826C179.082 388.196 178.615 387.623 178.101 387.158C178.021 387.085 177.938 387.034 177.855 386.999C177.86 385.063 178.828 383.663 180.736 382.91C181.444 382.629 181.3 381.72 180.562 381.624Z" fill="#8B4CF8"/>
<path opacity="0.5" d="M179.375 388.816C179.079 388.189 178.615 387.619 178.103 387.156C178.023 387.083 177.94 387.032 177.857 386.997C177.862 385.061 178.83 383.661 180.738 382.908C181.446 382.629 181.303 381.72 180.564 381.624C177.838 381.269 175.862 383.745 175.931 386.226C176.59 387.46 177.906 388.264 179.375 388.816Z" fill="#8B4CF8"/>
<path d="M171.873 346.159C170.999 343.151 168.138 340.705 164.864 341.432C161.768 342.119 160.632 345.763 161.128 348.58C161.135 348.688 161.153 348.8 161.191 348.919C161.227 349.077 161.288 349.207 161.359 349.323C162.446 352.105 165.191 354.02 168.248 354.096C171.688 354.182 172.595 348.645 171.873 346.159Z" fill="#4C4C4C"/>
<path d="M163.319 348.407C162.795 346.577 163.789 343.867 165.685 343.699C167.551 343.534 169.126 344.543 169.808 346.765C170.357 348.556 169.762 350.744 168.217 351.802C165.198 351.404 163.837 350.215 163.319 348.407Z" fill="#8B4CF8"/>
<path opacity="0.5" d="M171.871 346.159C170.997 343.151 168.136 340.705 164.862 341.432C164.184 341.582 163.606 341.881 163.113 342.275C165.368 343.817 167.272 346.135 167.796 348.667C168.162 350.433 168.09 352.251 167.762 354.048C167.924 354.063 168.082 354.092 168.246 354.096C171.686 354.182 172.593 348.645 171.871 346.159Z" fill="#4C4C4C"/>
<path d="M159.518 354.484C152.52 369.575 171.978 382.853 184.016 387.151C190.443 389.445 198.559 384.563 200.041 378.052C201.498 371.655 198.107 363.357 190.942 362.026C185.824 361.076 184.577 360.669 180.395 357.536C181.556 358.406 179.745 356.944 179.412 356.637C178.657 355.94 177.999 355.146 177.253 354.446C174.289 351.668 171.523 350.357 167.455 349.93C164.553 349.626 160.741 351.845 159.518 354.484Z" fill="#5A319F"/>
<g opacity="0.3">
<path d="M197.014 365.605C197.997 368.73 198.38 372.012 197.595 375.19C196.381 380.108 192.142 384.157 186.882 383.609C184.137 383.323 181.556 382.165 179.111 380.948C176.326 379.561 173.504 378.199 170.809 376.644C166.079 373.915 161.945 370.218 160.039 365.081C158.913 362.045 159.098 358.902 159.091 355.525C153.431 370.182 172.257 382.952 184.017 387.151C190.444 389.445 198.56 384.563 200.042 378.052C200.99 373.89 199.874 368.934 197.014 365.605Z" fill="#5A319F"/>
</g>
<path d="M164.48 352.667C165.869 352.667 165.871 350.508 164.48 350.508C163.091 350.508 163.089 352.667 164.48 352.667Z" fill="#251F15"/>
<path d="M170.09 354.973C171.599 354.973 171.602 352.627 170.09 352.627C168.581 352.627 168.578 354.973 170.09 354.973Z" fill="#251F15"/>
<path d="M165.514 355.597C166.877 355.597 166.879 353.48 165.514 353.48C164.152 353.479 164.15 355.597 165.514 355.597Z" fill="#8B4CF8"/>
<path d="M163.373 356.27C162.686 356.148 161.799 356.242 161.555 356.895C161.295 357.595 162.003 358.261 162.659 358.617C164.033 359.362 168.204 360.844 168.204 359.684C168.204 358.523 165.378 356.626 163.373 356.27Z" fill="#251F15"/>
<path d="M184.199 345.491C181.804 344.293 179.069 345.288 177.17 346.927C177.081 346.989 176.994 347.061 176.912 347.155C176.812 347.248 176.739 347.346 176.677 347.446C175.122 349.337 174.312 351.525 173.59 353.861C173.432 354.371 173.684 355.128 174.201 355.361C178.633 357.36 185.162 358.416 186.865 352.411C187.605 349.794 186.751 346.768 184.199 345.491Z" fill="#4C4C4C"/>
<path d="M178.323 348.851C179.587 347.536 181.763 346.903 183.269 347.932C184.105 348.503 184.6 349.503 184.665 350.513C184.731 351.524 184.397 352.535 183.845 353.384C182.57 355.343 179.808 355.13 177.432 354.321C176.574 354.029 176.13 353.089 176.43 352.234C176.866 350.989 177.417 349.792 178.323 348.851Z" fill="#8B4CF8"/>
<path d="M156.96 348.033C157.883 349.174 158.688 350.41 159.601 351.56C160.407 352.574 161.193 353.868 162.3 354.553C162.833 354.883 163.338 354.249 163.101 353.752C162.549 352.596 161.317 351.646 160.41 350.75C159.375 349.728 158.246 348.801 157.223 347.769C157.051 347.594 156.812 347.85 156.96 348.033Z" fill="#4C4C4C"/>
<path d="M161.646 354.309C159.934 353.124 158.029 352.213 156.151 351.311C155.528 351.012 155.074 351.821 155.617 352.225C157.34 353.508 159.294 354.509 161.425 354.832C161.742 354.881 161.924 354.502 161.646 354.309Z" fill="#4C4C4C"/>
<path d="M167.579 356.744C171.789 357.116 175.909 358.119 180.124 358.417C180.636 358.453 180.76 357.603 180.246 357.512C176.071 356.774 171.844 355.777 167.579 355.972C167.077 355.995 167.088 356.701 167.579 356.744Z" fill="#4C4C4C"/>
<path d="M167.94 357.788C171.042 358.979 174.243 360.044 177.493 360.743C178.174 360.889 178.448 359.913 177.781 359.698C174.621 358.681 171.407 357.646 168.122 357.127C167.687 357.059 167.524 357.628 167.94 357.788Z" fill="#4C4C4C"/>
<path d="M173.15 372.323C171.716 369.909 168.694 368.899 166.419 370.948C164.465 372.707 164.333 375.977 166.319 377.648C166.166 377.771 166.021 377.915 165.888 378.096C165.525 378.589 165.399 379.047 165.482 379.651C165.552 380.16 166.196 380.168 166.505 379.921C166.818 379.671 167.022 379.375 167.241 379.047C167.262 379.485 167.339 379.918 167.502 380.331C167.787 381.052 168.74 380.922 168.827 380.152C168.89 379.59 168.804 379.036 168.647 378.498C169.373 378.812 170.157 378.97 170.861 378.613C171.177 378.453 171.33 377.942 171.114 377.647C170.716 377.102 170.257 376.872 169.583 376.8C169.061 376.744 168.555 376.713 168.035 376.736C167.216 375.481 166.791 373.942 167.993 372.769C169.2 371.591 171.26 371.618 172.366 372.926C172.737 373.364 173.434 372.802 173.15 372.323Z" fill="#8B4CF8"/>
<path opacity="0.5" d="M169.582 376.802C169.06 376.746 168.554 376.715 168.034 376.738C167.215 375.483 166.79 373.944 167.992 372.771C168.436 372.338 168.997 372.07 169.582 371.967C169.538 371.928 169.498 371.882 169.452 371.846C168.322 370.962 166.938 371.429 166.519 372.798C166.243 373.7 166.509 374.667 166.774 375.545C167.118 376.686 168.739 380.924 168.826 380.153C168.889 379.591 168.803 379.037 168.646 378.499C169.372 378.813 170.156 378.971 170.86 378.614C171.176 378.454 171.329 377.943 171.113 377.648C170.715 377.104 170.256 376.874 169.582 376.802Z" fill="#8B4CF8"/>
<path d="M197.651 390.458C197.224 390.398 196.79 390.366 196.362 390.309C196.397 390.289 196.436 390.269 196.47 390.249C197.102 389.874 197.528 389.443 197.913 388.82C198.299 388.195 197.537 387.465 196.919 387.826C196.373 388.145 195.912 388.491 195.426 388.896C195.152 389.124 194.852 389.344 194.584 389.592C193.096 389.305 191.678 388.788 190.551 387.712C189.246 386.466 188.667 384.757 188.274 383.041C188.195 382.698 187.648 382.691 187.573 383.041C186.756 386.882 189.869 390.625 193.593 391.198C193.52 392.038 193.699 392.933 194.447 393.388C194.803 393.604 195.383 393.331 195.337 392.877C195.291 392.427 195.123 392.015 194.982 391.594C195.897 391.96 196.986 391.97 197.781 391.464C198.137 391.238 198.153 390.528 197.651 390.458Z" fill="#8B4CF8"/>
<path opacity="0.5" d="M194.15 392.095C193.973 391.135 195.383 391.427 193.539 390.197C193.288 390.03 192.829 390 192.54 389.917C190.499 389.33 189.474 388.047 189.538 386.431C188.912 385.403 188.546 384.225 188.274 383.041C188.195 382.698 187.648 382.691 187.573 383.041C186.756 386.882 189.869 390.625 193.593 391.198C193.523 392.007 193.691 392.863 194.373 393.332C194.251 392.924 194.231 392.531 194.15 392.095Z" fill="#8B4CF8"/>
<path d="M200.355 331.087C200.916 331.087 200.917 330.215 200.355 330.215C199.794 330.215 199.793 331.087 200.355 331.087Z" fill="#4C4C4C"/>
<path opacity="0.5" d="M183.12 349.634C184.652 349.886 185.961 350.523 187.067 351.414C187.365 349.064 186.433 346.609 184.2 345.491C181.805 344.293 179.07 345.288 177.171 346.927C177.082 346.989 176.995 347.061 176.913 347.155C176.813 347.248 176.74 347.346 176.678 347.446C175.44 348.952 174.677 350.647 174.051 352.454C176.494 350.306 180.325 349.175 183.12 349.634Z" fill="#4C4C4C"/>
<path d="M187.536 376.311C187.894 376.766 188.39 377.122 188.864 377.447C189.345 377.776 189.854 378.11 190.427 378.245C190.889 378.353 191.115 377.763 190.74 377.501C190.29 377.187 189.769 376.986 189.299 376.703C188.83 376.421 188.406 376.07 187.938 375.789C187.591 375.582 187.316 376.032 187.536 376.311Z" fill="#4C4C4C"/>
<path d="M190.407 376.234C190.503 376.411 190.508 376.518 190.662 376.65C190.831 376.795 191.048 376.908 191.238 377.022C191.611 377.247 191.987 377.514 192.426 377.576C192.821 377.633 193.134 377.21 192.83 376.882C192.526 376.554 192.108 376.401 191.708 376.219C191.519 376.133 191.327 376.043 191.13 375.977C190.871 375.891 190.829 375.937 190.563 375.966C190.427 375.98 190.338 376.106 190.407 376.234Z" fill="#4C4C4C"/>
<path d="M190.101 373.72C190.554 374.159 191.264 374.446 191.867 374.599C192.34 374.719 192.61 374.075 192.197 373.817C191.668 373.486 190.968 373.176 190.336 373.153C190.048 373.143 189.899 373.524 190.101 373.72Z" fill="#4C4C4C"/>
<path d="M189.853 364.346C190.321 364.615 190.802 364.884 191.327 365.022C191.708 365.122 191.971 364.56 191.602 364.369C191.115 364.117 190.584 363.991 190.051 363.876C189.774 363.815 189.591 364.196 189.853 364.346Z" fill="#4C4C4C"/>
<path d="M195.354 369.938C195.621 370.14 195.864 370.37 196.201 370.434C196.542 370.498 196.769 370.125 196.536 369.858C196.295 369.582 195.934 369.483 195.604 369.347C195.235 369.194 195.09 369.738 195.354 369.938Z" fill="#4C4C4C"/>
<path d="M187.924 362.902C188.486 363.106 189.049 363.274 189.651 363.285C190.097 363.293 190.185 362.627 189.756 362.51C189.177 362.352 188.587 362.357 187.993 362.396C187.698 362.416 187.649 362.802 187.924 362.902Z" fill="#4C4C4C"/>
</g>
<defs>
<clipPath id="clip0_95_302">
<rect width="500" height="500" fill="white"/>
</clipPath>
</defs>
</svg>
