<svg width="18" height="18" viewBox="0 0 18 18" fill="none" xmlns="http://www.w3.org/2000/svg">
    <g clip-path="url(#clip0_81_224)">
    <path d="M6.24696 0.512695C6.81915 0.569586 7.35732 0.822267 7.76747 1.23242C8.23621 1.70125 8.49989 2.33703 8.49989 3V4.30078C8.66319 4.26743 8.83073 4.25 8.99989 4.25L9.24696 4.2627C9.81915 4.31959 10.3573 4.57227 10.7675 4.98242C10.8425 5.05749 10.9102 5.13864 10.9745 5.22168C11.294 5.07785 11.6428 5 11.9999 5L12.247 5.0127C12.7007 5.05781 13.1319 5.22773 13.496 5.5H13.4999V5.50293C13.5934 5.57317 13.6838 5.64874 13.7675 5.73242C13.8425 5.80749 13.9102 5.88864 13.9745 5.97168C14.2938 5.82809 14.6421 5.75001 14.9989 5.75L15.246 5.7627C15.8182 5.81957 16.3563 6.07227 16.7665 6.48242C17.2352 6.95125 17.4989 7.58703 17.4989 8.25V10.4795C17.4991 10.4863 17.4999 10.4931 17.4999 10.5C17.4999 10.7786 17.4808 11.0552 17.4481 11.3291C17.4413 11.3868 17.4349 11.4445 17.4267 11.502C17.418 11.5617 17.4075 11.6212 17.3974 11.6807C17.3891 11.7289 17.3812 11.7772 17.372 11.8252C17.3578 11.8988 17.3416 11.9719 17.3251 12.0449C17.3176 12.0781 17.3106 12.1115 17.3026 12.1445C17.2838 12.2225 17.2626 12.2998 17.2411 12.377C17.2338 12.403 17.2262 12.4291 17.2186 12.4551L17.1259 12.752C17.1006 12.8264 17.0735 12.9001 17.0458 12.9736C17.0316 13.0111 17.0176 13.0487 17.0028 13.0859C16.9763 13.1528 16.9484 13.2192 16.9198 13.2852C16.9051 13.3191 16.8901 13.353 16.8749 13.3867C16.8446 13.4536 16.8135 13.5201 16.7811 13.5859C16.7672 13.6144 16.7525 13.6426 16.7382 13.6709C16.7028 13.7405 16.6665 13.8095 16.6288 13.8779C16.6117 13.9091 16.5937 13.9398 16.5761 13.9707C16.5422 14.03 16.5081 14.0892 16.4725 14.1475C16.4476 14.1883 16.4212 14.2282 16.3954 14.2686C16.3607 14.3228 16.3261 14.3773 16.2899 14.4307C16.2701 14.4598 16.2496 14.4887 16.2294 14.5176C15.9979 14.8478 15.7391 15.1612 15.4501 15.4502C15.3304 15.5699 15.2052 15.683 15.078 15.793C15.0396 15.8262 15.0009 15.8593 14.9618 15.8916C14.898 15.9444 14.8329 15.9955 14.7675 16.0459C14.7468 16.0618 14.7268 16.079 14.7059 16.0947C14.6571 16.1314 14.6072 16.1668 14.5575 16.2021C14.5139 16.2332 14.4699 16.264 14.4257 16.2939C14.3735 16.3293 14.3205 16.3636 14.2675 16.3975C14.2313 16.4206 14.1947 16.4434 14.1581 16.4658C14.0987 16.5022 14.0388 16.5377 13.9784 16.5723C13.9414 16.5935 13.9045 16.6152 13.8671 16.6357C13.8084 16.6679 13.7489 16.699 13.6893 16.7295C13.6496 16.7498 13.6093 16.7695 13.5692 16.7891C13.5149 16.8155 13.4601 16.8412 13.4052 16.8662C13.3599 16.8869 13.3142 16.9071 13.2684 16.9268C13.209 16.9524 13.1489 16.977 13.0888 17.001C13.0486 17.017 13.0081 17.0326 12.9677 17.0479C12.9078 17.0704 12.8475 17.0924 12.787 17.1133C12.7426 17.1286 12.6979 17.1437 12.6532 17.1582C12.5939 17.1774 12.5343 17.1963 12.4745 17.2139C12.4302 17.2269 12.3853 17.2388 12.3407 17.251C12.2759 17.2686 12.2108 17.2859 12.1454 17.3018C12.112 17.3098 12.0783 17.3176 12.0448 17.3252C11.9719 17.3417 11.8986 17.3579 11.8251 17.3721C11.7691 17.3829 11.7125 17.3919 11.6561 17.4014C11.611 17.4089 11.5657 17.4171 11.5204 17.4238C11.442 17.4354 11.363 17.4452 11.2841 17.4541C11.2487 17.4581 11.2131 17.4633 11.1776 17.4668C11.0678 17.4775 10.9572 17.4857 10.8466 17.4912C10.7314 17.4969 10.6157 17.5 10.4999 17.5H8.99892C6.63025 17.5 5.10304 16.7467 3.80165 15.4541L1.0995 12.752L1.06435 12.7148C0.634349 12.2385 0.403872 11.6151 0.420792 10.9736C0.437766 10.3322 0.700625 9.72149 1.15517 9.26855C1.60973 8.81576 2.22173 8.55469 2.86317 8.54004C3.07919 8.53517 3.29313 8.55891 3.49989 8.6084V3C3.49989 2.33696 3.76347 1.70126 4.23232 1.23242C4.70114 0.763681 5.33693 0.5 5.99989 0.5L6.24696 0.512695Z" fill="#7936EC"/>
    <path fill-rule="evenodd" clip-rule="evenodd" d="M6.24696 0.512695C6.81922 0.569545 7.35727 0.822217 7.76747 1.23242C8.23628 1.70126 8.49989 2.33698 8.49989 3V4.30078C8.66322 4.26742 8.83069 4.25 8.99989 4.25L9.24696 4.2627C9.81922 4.31955 10.3573 4.57222 10.7675 4.98242C10.8426 5.05751 10.9102 5.1386 10.9745 5.22168C11.294 5.07783 11.6427 5 11.9999 5L12.247 5.0127C12.8192 5.06955 13.3573 5.32222 13.7675 5.73242C13.8426 5.80751 13.9102 5.8886 13.9745 5.97168C14.2938 5.82806 14.6421 5.75001 14.9989 5.75L15.246 5.7627C15.8183 5.81953 16.3563 6.07222 16.7665 6.48242C17.2353 6.95126 17.4989 7.58698 17.4989 8.25V10.4795C17.4991 10.4863 17.4999 10.4931 17.4999 10.5C17.4999 11.0302 17.4377 11.5538 17.3212 12.0625C17.3161 12.0849 17.3119 12.1075 17.3065 12.1299C17.2867 12.2128 17.2639 12.2949 17.2411 12.377C17.2338 12.4031 17.2262 12.4291 17.2186 12.4551C17.1958 12.5337 17.171 12.6117 17.1454 12.6895C17.1386 12.7102 17.1329 12.7313 17.1259 12.752C17.0984 12.8327 17.0683 12.9125 17.038 12.9922C17.0267 13.0219 17.0155 13.0515 17.0038 13.0811C16.979 13.1436 16.9533 13.2057 16.9267 13.2676C16.908 13.311 16.8896 13.3544 16.87 13.3975C16.8413 13.4607 16.8118 13.5236 16.7811 13.5859C16.7677 13.6134 16.754 13.6407 16.7401 13.668C16.7062 13.7348 16.6717 13.8014 16.6356 13.8672C16.6183 13.8988 16.5997 13.9296 16.5819 13.9609C16.5425 14.0303 16.5017 14.0989 16.4599 14.167C16.4521 14.1795 16.4452 14.1926 16.4374 14.2051C16.3895 14.2819 16.3399 14.3576 16.289 14.4326C16.2757 14.4522 16.2624 14.4718 16.2489 14.4912C16.1361 14.6537 16.0164 14.8117 15.8895 14.9648C15.8864 14.9686 15.8839 14.9728 15.8808 14.9766C15.7448 15.14 15.6017 15.2986 15.4501 15.4502C15.3304 15.5699 15.2052 15.683 15.078 15.793C15.0395 15.8262 15.0009 15.8592 14.9618 15.8916C14.898 15.9444 14.833 15.9955 14.7675 16.0459C14.7467 16.0619 14.7269 16.079 14.7059 16.0947C14.6571 16.1315 14.6073 16.1668 14.5575 16.2021C14.5138 16.2332 14.47 16.2639 14.4257 16.2939C14.3734 16.3293 14.3206 16.3636 14.2675 16.3975C14.227 16.4233 14.1863 16.4487 14.1454 16.4736C14.0957 16.504 14.0455 16.5334 13.995 16.5625C13.9513 16.5877 13.9074 16.6125 13.8632 16.6367C13.8055 16.6683 13.7478 16.6996 13.6893 16.7295C13.6495 16.7499 13.6094 16.7695 13.5692 16.7891C13.5149 16.8156 13.4602 16.8411 13.4052 16.8662C13.3607 16.8865 13.3162 16.9064 13.2714 16.9258C13.2073 16.9534 13.1429 16.9802 13.078 17.0059C13.0456 17.0187 13.0129 17.0306 12.9804 17.043C12.9158 17.0674 12.8513 17.0917 12.786 17.1143C12.7419 17.1295 12.6976 17.1438 12.6532 17.1582C12.5938 17.1774 12.5344 17.1963 12.4745 17.2139C12.4253 17.2283 12.3756 17.2415 12.3261 17.2549C12.2715 17.2696 12.217 17.2844 12.162 17.2979C12.1085 17.3109 12.0547 17.3231 12.0009 17.335C11.9431 17.3476 11.8852 17.3599 11.827 17.3711C11.7619 17.3837 11.6964 17.3945 11.6308 17.4053C11.5949 17.4111 11.5593 17.4185 11.5233 17.4238C11.4423 17.4358 11.3608 17.445 11.2792 17.4541C11.2453 17.4579 11.2116 17.4635 11.1776 17.4668C11.0677 17.4775 10.9573 17.4857 10.8466 17.4912C10.7314 17.4969 10.6158 17.5 10.4999 17.5H8.99892C6.63018 17.5 5.10306 16.7468 3.80165 15.4541L1.0995 12.752L1.06435 12.7148C0.634349 12.2385 0.403872 11.6151 0.420792 10.9736C0.437765 10.3322 0.700624 9.72149 1.15517 9.26855C1.60974 8.81569 2.22168 8.55469 2.86317 8.54004C3.07927 8.53515 3.29307 8.55889 3.49989 8.6084V3C3.49989 2.33696 3.76347 1.70126 4.23232 1.23242C4.70115 0.763614 5.33688 0.5 5.99989 0.5L6.24696 0.512695ZM5.99989 2.5C5.86731 2.5 5.74014 2.55275 5.64638 2.64648C5.55261 2.74025 5.49989 2.86739 5.49989 3V10.0869L5.95595 10.543L6.02431 10.6191C6.34463 11.0119 6.32201 11.5909 5.95595 11.957C5.58984 12.3231 5.01082 12.3457 4.61806 12.0254L4.54189 11.957L3.25087 10.666C3.15657 10.5825 3.0342 10.5372 2.9081 10.54C2.78001 10.543 2.65809 10.5952 2.56728 10.6855C2.47641 10.7761 2.42325 10.8981 2.41982 11.0264C2.41652 11.1515 2.46095 11.2729 2.54286 11.3672L5.21083 14.0352L5.38759 14.2051C6.27584 15.028 7.28239 15.5 8.99892 15.5H10.4989L10.747 15.4941C10.7541 15.4938 10.7613 15.4926 10.7684 15.4922C11.7019 15.442 12.597 15.1297 13.3573 14.5996C13.4682 14.5222 13.5767 14.4411 13.6815 14.3545C13.7016 14.3379 13.7212 14.3207 13.7411 14.3037C13.8416 14.218 13.94 14.1292 14.0341 14.0352C14.18 13.8892 14.3147 13.7343 14.4403 13.5732C14.4592 13.5491 14.4786 13.5254 14.497 13.501C14.5729 13.3999 14.644 13.2956 14.7118 13.1895C15.03 12.6912 15.2578 12.1411 15.3837 11.5635C15.4419 11.2965 15.4794 11.0239 15.4931 10.748L15.4989 10.5V8.25C15.4989 8.11742 15.4462 7.99025 15.3524 7.89648C15.282 7.82611 15.1928 7.77894 15.0966 7.75977L14.9989 7.75C14.8664 7.75002 14.7391 7.80277 14.6454 7.89648C14.554 7.98794 14.5024 8.11119 14.4999 8.24023V8.25C14.4999 8.80225 14.0521 9.24994 13.4999 9.25C12.9476 9.24996 12.4989 8.80226 12.4989 8.25C12.4989 8.24283 12.4998 8.23568 12.4999 8.22852V7.5C12.4999 7.36742 12.4471 7.24025 12.3534 7.14648C12.283 7.07611 12.1937 7.02895 12.0975 7.00977L11.9999 7C11.8673 7 11.7401 7.05275 11.6464 7.14648C11.5526 7.24025 11.4999 7.36739 11.4999 7.5L11.495 7.60254C11.4471 8.07294 11.0728 8.44717 10.6024 8.49512C10.5687 8.49855 10.5345 8.5 10.4999 8.5C10.4653 8.5 10.431 8.49854 10.3974 8.49512C9.89317 8.44383 9.49989 8.01771 9.49989 7.5V6.75C9.49989 6.61742 9.44714 6.49025 9.35341 6.39648C9.28303 6.32611 9.19374 6.27895 9.09755 6.25977L8.99989 6.25C8.86731 6.25 8.74014 6.30275 8.64638 6.39648C8.55261 6.49025 8.49989 6.61739 8.49989 6.75V7.5C8.49989 8.05225 8.05213 8.49994 7.49989 8.5C6.94761 8.5 6.49989 8.05228 6.49989 7.5V3C6.49989 2.86742 6.44714 2.74025 6.35341 2.64648C6.28303 2.57611 6.19374 2.52895 6.09755 2.50977L5.99989 2.5Z" fill="#212121"/>
    </g>
    <defs>
    <clipPath id="clip0_81_224">
    <rect width="18" height="18" fill="white"/>
    </clipPath>
    </defs>
    </svg>