<svg width="1080" height="1080" viewBox="0 0 1080 1080" fill="none" xmlns="http://www.w3.org/2000/svg">
<rect width="1080" height="1080" fill="#0A0A0A"/>
<rect width="1080" height="1080" fill="url(#paint0_radial_56_224)"/>
<path opacity="0.2" d="M381.875 413.5L445.125 887.875H312.063C304.932 887.877 298.009 885.469 292.419 881.041C286.829 876.613 282.899 870.426 281.268 863.484L160.5 350.25L381.875 413.5ZM698.125 413.5L634.875 887.875H767.937C775.068 887.877 781.991 885.469 787.581 881.041C793.171 876.613 797.101 870.426 798.732 863.484L919.5 350.25L698.125 413.5Z" fill="#F5C518"/>
<path d="M941.323 327.36C937.609 323.869 933.107 321.326 928.2 319.95C923.292 318.573 918.124 318.403 913.137 319.454C906.996 297.379 896.554 276.734 882.41 258.707C868.267 240.679 850.701 225.624 830.722 214.405C810.742 203.187 788.743 196.027 765.988 193.336C743.234 190.645 720.171 192.477 698.126 198.726C684.251 168.447 661.974 142.789 633.944 124.801C605.913 106.812 573.307 97.25 540.001 97.25C506.695 97.25 474.089 106.812 446.059 124.801C418.028 142.789 395.751 168.447 381.876 198.726C359.837 192.468 336.778 190.627 314.024 193.308C291.271 195.988 269.271 203.137 249.289 214.344C229.306 225.551 211.735 240.595 197.583 258.613C183.432 276.631 172.979 297.266 166.826 319.335C161.631 318.269 156.251 318.527 151.182 320.084C146.112 321.642 141.516 324.449 137.815 328.248C134.114 332.047 131.429 336.715 130.005 341.824C128.581 346.933 128.465 352.318 129.667 357.483L250.474 870.757C253.745 884.634 261.607 896.999 272.787 905.846C283.966 914.694 297.807 919.505 312.064 919.499H767.938C782.195 919.505 796.036 914.694 807.216 905.846C818.395 896.999 826.258 884.634 829.528 870.757L950.296 357.483C951.556 352.115 951.391 346.512 949.816 341.228C948.242 335.944 945.314 331.163 941.323 327.36ZM334.439 255.374C352.513 255.327 370.317 259.754 386.264 268.261C390.569 270.544 395.343 271.802 400.214 271.936C405.086 272.07 409.922 271.076 414.345 269.033C418.769 266.989 422.661 263.951 425.717 260.155C428.773 256.36 430.91 251.909 431.962 247.151C437.436 222.58 451.123 200.608 470.764 184.861C490.405 169.114 514.827 160.533 540.001 160.533C565.175 160.533 589.597 169.114 609.238 184.861C628.88 200.608 642.566 222.58 648.04 247.151C649.092 251.909 651.23 256.36 654.286 260.155C657.342 263.951 661.233 266.989 665.657 269.033C670.081 271.076 674.917 272.07 679.788 271.936C684.659 271.802 689.433 270.544 693.738 268.261C708.377 260.496 724.572 256.117 741.129 255.447C757.686 254.776 774.183 257.832 789.401 264.388C804.62 270.945 818.172 280.834 829.058 293.327C839.944 305.821 847.886 320.599 852.298 336.571L699.866 380.055L563.522 325.502C548.448 319.475 531.633 319.475 516.559 325.502L380.176 380.134L227.704 336.571C234.159 313.222 248.094 292.635 267.375 277.968C286.655 263.3 310.214 255.363 334.439 255.374ZM663.536 433.699L607.204 856.249H472.798L416.466 433.699L540.001 384.325L663.536 433.699ZM203.63 395.473L353.256 438.206L408.995 856.249H312.064L203.63 395.473ZM767.938 856.249H671.008L726.747 438.206L876.373 395.473L767.938 856.249Z" fill="#F5C518"/>
<defs>
<radialGradient id="paint0_radial_56_224" cx="0" cy="0" r="1" gradientUnits="userSpaceOnUse" gradientTransform="translate(540 540) rotate(90) scale(927)">
<stop stop-color="#0A0A0A" stop-opacity="0"/>
<stop offset="1" stop-color="#F5C518" stop-opacity="0.5"/>
</radialGradient>
</defs>
</svg>
