<svg width="1080" height="1080" viewBox="0 0 1080 1080" fill="none" xmlns="http://www.w3.org/2000/svg">
<rect width="1080" height="1080" fill="#0A0A0A"/>
<path d="M843.074 521.868C849.934 532.154 853.22 543.409 856.119 554.271C861.837 554.271 866.906 554.086 871.957 554.307C885.199 554.885 893.2 563.271 893.215 576.382C893.232 592.568 893.14 608.755 893.263 624.94C893.383 640.545 885.775 648.713 870.109 649.315C865.731 649.484 861.341 649.341 856.641 649.341C856.671 649.301 856.247 649.615 856.168 650C846.491 697.186 814.602 721.121 770.267 731.884C761.863 733.924 753.24 734.678 744.554 734.668C704.864 734.623 665.174 734.668 625.485 734.616C622.404 734.612 619.276 734.35 616.253 733.775C607.782 732.164 604.33 728.428 603.526 720.044C603.019 714.753 602.601 709.435 602.517 704.123C602.116 678.655 590.164 661.496 566.336 652.43C540.054 642.431 508.99 649.764 492.165 669.98C485.584 677.887 481.781 686.858 481.492 697.293C481.253 705.909 481.157 714.551 479.52 723.072C478.325 729.289 474.654 732.84 468.393 733.671C465.546 734.049 462.685 734.591 459.83 734.595C418.589 734.65 377.339 735.113 336.107 734.462C305.318 733.976 277.972 723.519 255.378 702.01C241.853 689.134 232.703 673.681 228.946 655.311C227.953 650.452 226.709 647.794 220.836 649.141C215.896 650.273 210.666 649.4 205.697 648.056C196.372 645.533 190.031 637.917 189.903 628.214C189.671 610.7 189.65 593.179 189.885 575.666C190.046 563.622 198.591 555.127 210.996 554.334C216.269 553.997 221.582 554.278 227.264 554.278C227.723 553.119 228.446 551.755 228.811 550.3C238.364 512.222 264.318 490.156 299.972 477.812C312.385 473.514 325.305 471.66 338.517 471.665C474.66 471.719 610.804 471.335 746.944 471.926C786.66 472.099 819.573 488.074 843.074 521.868ZM749.606 525.229C762.944 525.229 776.282 525.229 790.218 525.229C788.739 521.933 786.872 521.068 785.211 520.028C771.632 511.53 756.674 508.402 740.826 508.406C608.232 508.446 475.637 508.442 343.043 508.401C337.032 508.399 331.097 508.815 325.182 509.825C298.228 514.427 268.706 534.653 270.175 574.146C270.966 595.403 270.167 616.714 270.348 637.999C270.455 650.553 274.417 661.943 282.226 671.863C283.923 674.018 285.488 676.533 288.595 677.117C290.295 674.37 289.658 671.653 289.665 669.077C289.748 638.7 289.882 608.323 289.744 577.947C289.679 563.684 294.76 552.043 305.857 543.069C318.706 532.678 333.645 527.639 349.905 526.319C370.05 524.683 390.224 526.076 410.385 526.032C472.906 525.892 535.425 526.519 597.95 525.651C648.051 524.955 698.166 525.33 749.606 525.229Z" fill="#7936EC"/>
<path d="M498.741 462.656C442.415 462.762 386.741 462.17 331.1 463.246C299.866 463.851 272.48 475.936 250.039 498.218C248.944 499.305 247.78 500.328 246.582 501.3C246.296 501.532 245.746 501.438 245.308 501.491C245.066 501.147 244.55 500.671 244.639 500.485C250.826 487.573 246.187 474.743 243.56 462.273C230.97 402.535 213.754 344.143 190.61 287.585C187.761 280.623 184.164 273.97 180.996 267.135C179.322 263.522 177.478 259.934 176.312 256.15C171.567 240.752 177.475 230.203 192.968 225.548C205.241 221.86 217.583 223.185 229.871 224.93C294.098 234.054 350.876 261.185 403.846 297.364C417.217 306.496 430.189 316.192 442.332 326.926C445.535 329.758 448.885 331.157 453.171 330.836C457.144 330.538 461.149 330.678 465.141 330.624C475.709 330.482 475.437 330.511 476.591 341.478C478.674 361.286 481.094 381.059 483.447 400.837C483.671 402.716 484.419 404.532 485.47 406.355C488.642 396.567 487.792 386.375 488.815 376.429C490.241 362.558 490.842 348.599 491.627 334.668C491.824 331.178 493.013 329.389 496.719 329.259C502.915 329.04 509.11 328.631 515.289 328.105C519.618 327.736 521.629 329.12 522.109 333.822C524.447 356.719 527.113 379.583 529.674 402.457C531.643 420.049 533.473 437.659 535.709 455.217C536.341 460.18 535.15 462.132 529.986 462.109C519.794 462.064 509.599 462.448 498.741 462.656ZM356.537 306.18C333.308 292.199 308.923 280.65 283.486 271.284C266.937 265.19 250.048 261.052 232.247 261.753C222.395 262.141 219.397 265.542 221.209 275.189C222.225 280.602 223.915 285.919 225.648 291.164C241.966 340.556 259.814 389.461 272.71 439.936C273.092 441.43 272.758 443.38 275.66 444.582C276.502 420.543 275.677 396.889 278.076 373.055C287.11 373.473 294.689 378.561 303.761 378.995C303.579 371.46 301.27 364.711 300.502 357.765C299.237 346.329 296.141 345.889 309.803 345.095C312.665 344.928 315.49 344.19 318.351 343.922C323.515 343.438 324.826 341.383 322.337 336.504C319.789 331.508 315.837 327.09 314.768 321.042C330.567 316.452 346.867 316.726 363.416 311.35C360.433 309.054 358.886 307.862 356.537 306.18Z" fill="#7936EC"/>
<path d="M852.12 407.47C846.194 430.053 840.503 452.131 836.813 474.664C835.437 483.073 833.38 491.498 837.788 499.527C835.944 500.555 835.219 499.554 834.469 498.827C808.771 473.93 777.767 462.634 742.271 462.658C681.959 462.697 621.647 462.658 561.335 462.642C546.35 462.638 546.162 462.599 547.707 448.214C551.654 411.463 555.754 374.729 559.864 337.995C560.983 327.993 561.102 327.941 571.168 328.274C575.814 328.427 580.452 329.17 585.09 329.138C589.901 329.105 590.757 331.559 591.126 335.761C593.253 359.994 593.482 384.375 597.04 408.584C600.077 398.272 600.678 387.578 602.045 377.034C603.722 364.09 605.045 351.097 606.343 338.108C606.898 332.56 609.116 329.562 615.183 330.58C629.267 332.944 639.835 327.522 650.994 318.521C702.277 277.154 759.041 245.917 823.664 230.392C838.333 226.868 853.189 224.444 868.22 223.278C876.694 222.62 885.041 223.826 893.02 226.888C905.165 231.548 910.024 240.535 907.203 253.277C906.537 256.281 905.587 259.323 904.187 262.05C880.558 308.088 866.417 357.517 852.12 407.47ZM759.718 288.049C746 294.967 732.002 301.412 717.922 312.073C735.83 315.107 751.751 317.804 767.494 320.471C767.807 324.975 765.527 327.351 764.043 329.962C755.778 344.505 757.213 342.725 771.387 344.881C783.846 346.775 783.59 346.735 781.704 359.753C780.784 366.099 778.376 372.373 779.3 379.3C788.247 378.002 795.921 373.509 804.809 373.065C806.346 398.315 806.685 422.74 807.39 447.237C810.523 438.197 812.889 429.073 815.42 419.996C827.144 377.96 841.81 336.873 855.65 295.52C858.106 288.179 860.91 280.891 861.672 273.126C862.453 265.157 860.143 262.291 852.347 261.916C844.17 261.523 835.963 261.682 827.862 263.213C804.124 267.702 782.292 277.444 759.718 288.049Z" fill="#7936EC"/>
<path d="M748.678 778.068C699.457 804.139 650.03 828.832 598.583 848.812C558.943 864.207 518.174 863.336 478.636 846.789C432.01 827.275 386.323 805.652 341.52 782.253C314.229 768 289.84 749.609 268.52 727.297C267.262 725.98 265.152 724.993 265.812 721.651C273.433 725.594 280.37 730.222 288.095 733.338C303.686 739.628 319.732 743.408 336.569 743.429C378.029 743.481 419.488 743.539 460.948 743.42C480.413 743.364 489.229 734.681 490.214 715.073C490.436 710.65 490.419 706.202 490.267 701.774C489.815 688.587 495.282 678.192 505.117 669.833C527.594 650.73 564.979 653.237 584.054 675.128C590.261 682.251 593.374 690.583 593.63 700.03C593.827 707.33 592.923 714.683 594.315 721.924C597.019 735.989 604.646 742.563 618.944 743.314C621.598 743.453 624.262 743.444 626.922 743.445C664.613 743.45 702.305 743.217 739.993 743.523C765.654 743.732 789.666 738.366 811.693 724.911C812.904 724.171 814.081 722.743 816.942 724.23C797.128 746.083 774.025 763.077 748.678 778.068ZM528.919 743.469C539.258 750.567 545.922 750.286 555.638 741.471C566.732 731.405 575.383 719.334 582.112 706.011C587.016 696.301 584.63 691.099 573.939 689.617C552.389 686.632 530.672 686.731 509.122 689.565C498.026 691.024 495.466 697.146 500.972 707.083C508.295 720.297 516.858 732.65 528.919 743.469ZM579.913 773.777C572.494 770.86 564.486 768.907 557.789 764.81C546.431 757.863 536.703 758.406 524.809 764.635C505.858 774.558 485.378 781.027 463.562 782.149C487.432 791.531 511.371 792.092 535.454 783.542C538.624 782.417 541.473 781.524 544.989 783.056C559.749 789.488 575.354 791.067 591.209 789.617C600.788 788.741 610.322 787.054 620.684 781.672C605.854 781.19 593.239 778.323 579.913 773.777Z" fill="#7936EC"/>
</svg>
