<svg xmlns="http://www.w3.org/2000/svg" version="1.1" xmlns:xlink="http://www.w3.org/1999/xlink" width="1000" height="1000"><style>
    #light-icon {
      display: inline;
    }
    #dark-icon {
      display: none;
    }

    @media (prefers-color-scheme: dark) {
      #light-icon {
        display: none;
      }
      #dark-icon {
        display: inline;
      }
    }
  </style><g id="light-icon"><svg xmlns="http://www.w3.org/2000/svg" version="1.1" xmlns:xlink="http://www.w3.org/1999/xlink" width="1000" height="1000"><g clip-path="url(#SvgjsClipPath1150)"><rect width="1000" height="1000" fill="#ffffff"></rect><g transform="matrix(0.9259259259259259,0,0,0.9259259259259259,0,0)"><svg xmlns="http://www.w3.org/2000/svg" version="1.1" xmlns:xlink="http://www.w3.org/1999/xlink" width="1080" height="1080"><svg width="1080" height="1080" viewBox="0 0 1080 1080" fill="none" xmlns="http://www.w3.org/2000/svg">
<rect width="1080" height="1080" fill="#0A0A0A"></rect>
<path d="M924.411 517.001C933.112 530.048 937.28 544.323 940.957 558.1C948.21 558.1 954.639 557.866 961.045 558.146C977.841 558.88 987.99 569.516 988.008 586.145C988.03 606.675 987.913 627.206 988.07 647.735C988.221 667.528 978.571 677.887 958.701 678.652C953.148 678.865 947.58 678.684 941.619 678.684C941.658 678.633 941.12 679.032 941.02 679.52C928.745 739.37 888.298 769.727 832.064 783.379C821.405 785.966 810.469 786.923 799.451 786.91C749.11 786.853 698.769 786.911 648.427 786.844C644.52 786.839 640.553 786.506 636.718 785.777C625.974 783.735 621.595 778.996 620.575 768.362C619.932 761.651 619.402 754.906 619.296 748.169C618.787 715.865 603.628 694.101 573.405 682.603C540.069 669.92 500.669 679.221 479.328 704.862C470.981 714.891 466.157 726.269 465.791 739.506C465.489 750.433 465.367 761.394 463.29 772.203C461.774 780.088 457.119 784.592 449.177 785.646C445.566 786.125 441.938 786.812 438.316 786.817C386.006 786.888 333.687 787.475 281.39 786.65C242.337 786.033 207.652 772.769 178.995 745.488C161.841 729.157 150.234 709.556 145.47 686.257C144.21 680.093 142.632 676.722 135.183 678.43C128.917 679.867 122.284 678.759 115.982 677.054C104.154 673.854 96.1109 664.194 95.9482 651.887C95.6546 629.673 95.6281 607.45 95.9256 585.237C96.1301 569.961 106.968 559.186 122.702 558.181C129.391 557.753 136.129 558.109 143.337 558.109C143.918 556.639 144.836 554.908 145.298 553.064C157.415 504.766 190.335 476.779 235.556 461.122C251.301 455.671 267.689 453.319 284.446 453.325C457.125 453.394 629.807 452.907 802.483 453.656C852.858 453.875 894.603 474.138 924.411 517.001ZM805.859 521.265C822.777 521.265 839.695 521.265 857.37 521.265C855.495 517.084 853.125 515.986 851.019 514.668C833.797 503.888 814.824 499.921 794.723 499.927C626.544 499.977 458.365 499.973 290.186 499.919C282.563 499.917 275.035 500.445 267.533 501.726C233.345 507.564 195.899 533.217 197.763 583.309C198.766 610.27 197.753 637.301 197.983 664.298C198.119 680.221 203.144 694.669 213.048 707.25C215.2 709.984 217.186 713.173 221.127 713.914C223.283 710.43 222.475 706.984 222.484 703.716C222.589 665.188 222.759 626.658 222.584 588.13C222.501 570.039 228.947 555.274 243.021 543.893C259.319 530.713 278.266 524.321 298.89 522.646C324.442 520.571 350.029 522.339 375.602 522.282C454.901 522.105 534.199 522.901 613.503 521.799C677.049 520.916 740.614 521.393 805.859 521.265Z" fill="#7936EC"></path>
<path d="M487.668 441.899C416.227 442.034 345.612 441.282 275.038 442.648C235.421 443.414 200.685 458.743 172.222 487.005C170.834 488.384 169.357 489.681 167.838 490.913C167.475 491.208 166.777 491.089 166.222 491.156C165.915 490.72 165.26 490.116 165.373 489.881C173.22 473.503 167.337 457.23 164.004 441.414C148.035 365.643 126.199 291.58 96.8447 219.844C93.2313 211.014 88.6687 202.575 84.651 193.906C82.5276 189.324 80.1887 184.773 78.7095 179.973C72.6905 160.443 80.1851 147.063 99.8348 141.159C115.402 136.481 131.056 138.161 146.642 140.375C228.105 151.948 300.121 186.359 367.307 232.247C384.266 243.83 400.719 256.129 416.121 269.743C420.183 273.335 424.433 275.11 429.868 274.702C434.908 274.325 439.988 274.502 445.051 274.434C458.455 274.254 458.111 274.29 459.574 288.201C462.216 313.324 465.285 338.404 468.27 363.49C468.554 365.873 469.503 368.176 470.836 370.489C474.859 358.074 473.781 345.146 475.078 332.531C476.887 314.938 477.65 297.233 478.646 279.563C478.896 275.137 480.404 272.868 485.104 272.702C492.963 272.424 500.821 271.906 508.658 271.238C514.148 270.771 516.699 272.527 517.308 278.49C520.273 307.532 523.654 336.532 526.903 365.545C529.401 387.858 531.722 410.193 534.558 432.464C535.359 438.758 533.848 441.234 527.299 441.206C514.371 441.148 501.441 441.636 487.668 441.899ZM307.301 243.43C277.839 225.697 246.909 211.049 214.645 199.168C193.655 191.439 172.234 186.191 149.656 187.08C137.16 187.572 133.357 191.885 135.655 204.121C136.945 210.988 139.088 217.731 141.286 224.384C161.983 287.031 184.621 349.061 200.978 413.081C201.462 414.977 201.039 417.45 204.719 418.975C205.787 388.484 204.742 358.482 207.784 328.252C219.242 328.782 228.856 335.236 240.361 335.786C240.131 326.229 237.202 317.669 236.228 308.858C234.623 294.354 230.697 293.796 248.025 292.788C251.655 292.577 255.238 291.641 258.867 291.301C265.417 290.687 267.08 288.08 263.923 281.892C260.691 275.555 255.679 269.951 254.322 262.28C274.361 256.459 295.036 256.806 316.027 249.987C312.243 247.074 310.281 245.564 307.301 243.43Z" fill="#7936EC"></path>
<path d="M935.888 371.903C928.371 400.547 921.153 428.55 916.473 457.13C914.727 467.796 912.118 478.482 917.71 488.665C915.37 489.97 914.451 488.701 913.499 487.778C880.905 456.199 841.581 441.872 796.558 441.902C720.06 441.952 643.562 441.903 567.064 441.882C548.057 441.876 547.819 441.827 549.779 423.582C554.786 376.968 559.986 330.375 565.199 283.784C566.618 271.098 566.768 271.032 579.536 271.454C585.429 271.648 591.312 272.59 597.195 272.55C603.296 272.508 604.383 275.62 604.85 280.95C607.549 311.686 607.838 342.611 612.351 373.316C616.204 360.237 616.966 346.673 618.699 333.299C620.827 316.881 622.504 300.402 624.152 283.927C624.856 276.89 627.669 273.087 635.363 274.379C653.228 277.378 666.631 270.5 680.785 259.083C745.831 206.615 817.829 166.994 899.794 147.303C918.401 142.833 937.244 139.758 956.308 138.279C967.057 137.445 977.644 138.975 987.764 142.858C1003.17 148.769 1009.33 160.168 1005.75 176.329C1004.91 180.14 1003.7 183.999 1001.93 187.458C971.957 245.851 954.022 308.545 935.888 371.903ZM818.688 220.433C801.288 229.208 783.534 237.383 765.675 250.905C788.388 254.753 808.582 258.174 828.55 261.557C828.947 267.269 826.055 270.283 824.174 273.594C813.69 292.041 815.51 289.783 833.489 292.517C849.291 294.92 848.966 294.869 846.574 311.381C845.407 319.429 842.353 327.387 843.525 336.173C854.873 334.528 864.607 328.829 875.88 328.265C877.829 360.292 878.259 391.271 879.153 422.343C883.127 410.876 886.128 399.304 889.339 387.791C904.208 334.474 922.81 282.361 940.364 229.91C943.48 220.599 947.037 211.354 948.002 201.506C948.993 191.398 946.063 187.762 936.175 187.287C925.804 186.789 915.395 186.99 905.119 188.933C875.011 194.626 847.319 206.982 818.688 220.433Z" fill="#7936EC"></path>
<path d="M804.685 841.961C742.254 875.028 679.563 906.348 614.309 931.69C564.03 951.216 512.32 950.112 462.171 929.123C403.033 904.373 345.084 876.946 288.258 847.268C253.643 829.191 222.709 805.864 195.666 777.563C194.071 775.893 191.396 774.641 192.233 770.403C201.898 775.403 210.697 781.273 220.495 785.226C240.271 793.204 260.622 797.999 281.978 798.025C334.564 798.09 387.151 798.164 439.736 798.013C464.426 797.942 475.607 786.93 476.857 762.06C477.138 756.449 477.117 750.807 476.924 745.191C476.351 728.465 483.285 715.28 495.76 704.678C524.268 680.449 571.686 683.628 595.881 711.394C603.754 720.428 607.702 730.997 608.026 742.978C608.277 752.238 607.13 761.564 608.895 770.749C612.325 788.588 621.999 796.927 640.134 797.879C643.501 798.056 646.88 798.044 650.253 798.045C698.059 798.052 745.867 797.756 793.669 798.144C826.216 798.409 856.672 791.604 884.611 774.537C886.147 773.599 887.64 771.787 891.269 773.674C866.138 801.391 836.835 822.946 804.685 841.961ZM525.949 798.075C539.063 807.079 547.515 806.722 559.838 795.541C573.91 782.774 584.883 767.464 593.417 750.565C599.637 738.249 596.612 731.651 583.051 729.772C555.718 725.985 528.173 726.111 500.839 729.706C486.765 731.556 483.518 739.321 490.502 751.925C499.79 768.686 510.651 784.354 525.949 798.075ZM590.628 836.517C581.219 832.817 571.062 830.34 562.567 825.144C548.16 816.333 535.822 817.022 520.736 824.922C496.7 837.508 470.723 845.713 443.053 847.136C473.328 859.036 503.692 859.748 534.238 848.903C538.258 847.476 541.872 846.344 546.332 848.287C565.053 856.444 584.846 858.448 604.956 856.608C617.106 855.497 629.199 853.357 642.341 846.532C623.531 845.92 607.53 842.283 590.628 836.517Z" fill="#7936EC"></path>
</svg></svg></g></g><defs><clipPath id="SvgjsClipPath1150"><rect width="1000" height="1000" x="0" y="0" rx="500" ry="500"></rect></clipPath></defs></svg></g><g id="dark-icon"><svg xmlns="http://www.w3.org/2000/svg" version="1.1" xmlns:xlink="http://www.w3.org/1999/xlink" width="1000" height="1000"><g><g transform="matrix(0.9259259259259259,0,0,0.9259259259259259,0,0)"><svg xmlns="http://www.w3.org/2000/svg" version="1.1" xmlns:xlink="http://www.w3.org/1999/xlink" width="1080" height="1080"><svg width="1080" height="1080" viewBox="0 0 1080 1080" fill="none" xmlns="http://www.w3.org/2000/svg">
<rect width="1080" height="1080" fill="#0A0A0A"></rect>
<path d="M924.411 517.001C933.112 530.048 937.28 544.323 940.957 558.1C948.21 558.1 954.639 557.866 961.045 558.146C977.841 558.88 987.99 569.516 988.008 586.145C988.03 606.675 987.913 627.206 988.07 647.735C988.221 667.528 978.571 677.887 958.701 678.652C953.148 678.865 947.58 678.684 941.619 678.684C941.658 678.633 941.12 679.032 941.02 679.52C928.745 739.37 888.298 769.727 832.064 783.379C821.405 785.966 810.469 786.923 799.451 786.91C749.11 786.853 698.769 786.911 648.427 786.844C644.52 786.839 640.553 786.506 636.718 785.777C625.974 783.735 621.595 778.996 620.575 768.362C619.932 761.651 619.402 754.906 619.296 748.169C618.787 715.865 603.628 694.101 573.405 682.603C540.069 669.92 500.669 679.221 479.328 704.862C470.981 714.891 466.157 726.269 465.791 739.506C465.489 750.433 465.367 761.394 463.29 772.203C461.774 780.088 457.119 784.592 449.177 785.646C445.566 786.125 441.938 786.812 438.316 786.817C386.006 786.888 333.687 787.475 281.39 786.65C242.337 786.033 207.652 772.769 178.995 745.488C161.841 729.157 150.234 709.556 145.47 686.257C144.21 680.093 142.632 676.722 135.183 678.43C128.917 679.867 122.284 678.759 115.982 677.054C104.154 673.854 96.1109 664.194 95.9482 651.887C95.6546 629.673 95.6281 607.45 95.9256 585.237C96.1301 569.961 106.968 559.186 122.702 558.181C129.391 557.753 136.129 558.109 143.337 558.109C143.918 556.639 144.836 554.908 145.298 553.064C157.415 504.766 190.335 476.779 235.556 461.122C251.301 455.671 267.689 453.319 284.446 453.325C457.125 453.394 629.807 452.907 802.483 453.656C852.858 453.875 894.603 474.138 924.411 517.001ZM805.859 521.265C822.777 521.265 839.695 521.265 857.37 521.265C855.495 517.084 853.125 515.986 851.019 514.668C833.797 503.888 814.824 499.921 794.723 499.927C626.544 499.977 458.365 499.973 290.186 499.919C282.563 499.917 275.035 500.445 267.533 501.726C233.345 507.564 195.899 533.217 197.763 583.309C198.766 610.27 197.753 637.301 197.983 664.298C198.119 680.221 203.144 694.669 213.048 707.25C215.2 709.984 217.186 713.173 221.127 713.914C223.283 710.43 222.475 706.984 222.484 703.716C222.589 665.188 222.759 626.658 222.584 588.13C222.501 570.039 228.947 555.274 243.021 543.893C259.319 530.713 278.266 524.321 298.89 522.646C324.442 520.571 350.029 522.339 375.602 522.282C454.901 522.105 534.199 522.901 613.503 521.799C677.049 520.916 740.614 521.393 805.859 521.265Z" fill="#7936EC"></path>
<path d="M487.668 441.899C416.227 442.034 345.612 441.282 275.038 442.648C235.421 443.414 200.685 458.743 172.222 487.005C170.834 488.384 169.357 489.681 167.838 490.913C167.475 491.208 166.777 491.089 166.222 491.156C165.915 490.72 165.26 490.116 165.373 489.881C173.22 473.503 167.337 457.23 164.004 441.414C148.035 365.643 126.199 291.58 96.8447 219.844C93.2313 211.014 88.6687 202.575 84.651 193.906C82.5276 189.324 80.1887 184.773 78.7095 179.973C72.6905 160.443 80.1851 147.063 99.8348 141.159C115.402 136.481 131.056 138.161 146.642 140.375C228.105 151.948 300.121 186.359 367.307 232.247C384.266 243.83 400.719 256.129 416.121 269.743C420.183 273.335 424.433 275.11 429.868 274.702C434.908 274.325 439.988 274.502 445.051 274.434C458.455 274.254 458.111 274.29 459.574 288.201C462.216 313.324 465.285 338.404 468.27 363.49C468.554 365.873 469.503 368.176 470.836 370.489C474.859 358.074 473.781 345.146 475.078 332.531C476.887 314.938 477.65 297.233 478.646 279.563C478.896 275.137 480.404 272.868 485.104 272.702C492.963 272.424 500.821 271.906 508.658 271.238C514.148 270.771 516.699 272.527 517.308 278.49C520.273 307.532 523.654 336.532 526.903 365.545C529.401 387.858 531.722 410.193 534.558 432.464C535.359 438.758 533.848 441.234 527.299 441.206C514.371 441.148 501.441 441.636 487.668 441.899ZM307.301 243.43C277.839 225.697 246.909 211.049 214.645 199.168C193.655 191.439 172.234 186.191 149.656 187.08C137.16 187.572 133.357 191.885 135.655 204.121C136.945 210.988 139.088 217.731 141.286 224.384C161.983 287.031 184.621 349.061 200.978 413.081C201.462 414.977 201.039 417.45 204.719 418.975C205.787 388.484 204.742 358.482 207.784 328.252C219.242 328.782 228.856 335.236 240.361 335.786C240.131 326.229 237.202 317.669 236.228 308.858C234.623 294.354 230.697 293.796 248.025 292.788C251.655 292.577 255.238 291.641 258.867 291.301C265.417 290.687 267.08 288.08 263.923 281.892C260.691 275.555 255.679 269.951 254.322 262.28C274.361 256.459 295.036 256.806 316.027 249.987C312.243 247.074 310.281 245.564 307.301 243.43Z" fill="#7936EC"></path>
<path d="M935.888 371.903C928.371 400.547 921.153 428.55 916.473 457.13C914.727 467.796 912.118 478.482 917.71 488.665C915.37 489.97 914.451 488.701 913.499 487.778C880.905 456.199 841.581 441.872 796.558 441.902C720.06 441.952 643.562 441.903 567.064 441.882C548.057 441.876 547.819 441.827 549.779 423.582C554.786 376.968 559.986 330.375 565.199 283.784C566.618 271.098 566.768 271.032 579.536 271.454C585.429 271.648 591.312 272.59 597.195 272.55C603.296 272.508 604.383 275.62 604.85 280.95C607.549 311.686 607.838 342.611 612.351 373.316C616.204 360.237 616.966 346.673 618.699 333.299C620.827 316.881 622.504 300.402 624.152 283.927C624.856 276.89 627.669 273.087 635.363 274.379C653.228 277.378 666.631 270.5 680.785 259.083C745.831 206.615 817.829 166.994 899.794 147.303C918.401 142.833 937.244 139.758 956.308 138.279C967.057 137.445 977.644 138.975 987.764 142.858C1003.17 148.769 1009.33 160.168 1005.75 176.329C1004.91 180.14 1003.7 183.999 1001.93 187.458C971.957 245.851 954.022 308.545 935.888 371.903ZM818.688 220.433C801.288 229.208 783.534 237.383 765.675 250.905C788.388 254.753 808.582 258.174 828.55 261.557C828.947 267.269 826.055 270.283 824.174 273.594C813.69 292.041 815.51 289.783 833.489 292.517C849.291 294.92 848.966 294.869 846.574 311.381C845.407 319.429 842.353 327.387 843.525 336.173C854.873 334.528 864.607 328.829 875.88 328.265C877.829 360.292 878.259 391.271 879.153 422.343C883.127 410.876 886.128 399.304 889.339 387.791C904.208 334.474 922.81 282.361 940.364 229.91C943.48 220.599 947.037 211.354 948.002 201.506C948.993 191.398 946.063 187.762 936.175 187.287C925.804 186.789 915.395 186.99 905.119 188.933C875.011 194.626 847.319 206.982 818.688 220.433Z" fill="#7936EC"></path>
<path d="M804.685 841.961C742.254 875.028 679.563 906.348 614.309 931.69C564.03 951.216 512.32 950.112 462.171 929.123C403.033 904.373 345.084 876.946 288.258 847.268C253.643 829.191 222.709 805.864 195.666 777.563C194.071 775.893 191.396 774.641 192.233 770.403C201.898 775.403 210.697 781.273 220.495 785.226C240.271 793.204 260.622 797.999 281.978 798.025C334.564 798.09 387.151 798.164 439.736 798.013C464.426 797.942 475.607 786.93 476.857 762.06C477.138 756.449 477.117 750.807 476.924 745.191C476.351 728.465 483.285 715.28 495.76 704.678C524.268 680.449 571.686 683.628 595.881 711.394C603.754 720.428 607.702 730.997 608.026 742.978C608.277 752.238 607.13 761.564 608.895 770.749C612.325 788.588 621.999 796.927 640.134 797.879C643.501 798.056 646.88 798.044 650.253 798.045C698.059 798.052 745.867 797.756 793.669 798.144C826.216 798.409 856.672 791.604 884.611 774.537C886.147 773.599 887.64 771.787 891.269 773.674C866.138 801.391 836.835 822.946 804.685 841.961ZM525.949 798.075C539.063 807.079 547.515 806.722 559.838 795.541C573.91 782.774 584.883 767.464 593.417 750.565C599.637 738.249 596.612 731.651 583.051 729.772C555.718 725.985 528.173 726.111 500.839 729.706C486.765 731.556 483.518 739.321 490.502 751.925C499.79 768.686 510.651 784.354 525.949 798.075ZM590.628 836.517C581.219 832.817 571.062 830.34 562.567 825.144C548.16 816.333 535.822 817.022 520.736 824.922C496.7 837.508 470.723 845.713 443.053 847.136C473.328 859.036 503.692 859.748 534.238 848.903C538.258 847.476 541.872 846.344 546.332 848.287C565.053 856.444 584.846 858.448 604.956 856.608C617.106 855.497 629.199 853.357 642.341 846.532C623.531 845.92 607.53 842.283 590.628 836.517Z" fill="#7936EC"></path>
</svg></svg></g></g></svg></g></svg>